<?xml version="1.0" standalone="no"?>
  <!DOCTYPE svg PUBLIC "-//W3C//DTD SVG 1.1//EN" "http://www.w3.org/Graphics/SVG/1.1/DTD/svg11.dtd" >
  <svg>
  <metadata>
  Created by font-carrier
  </metadata>
  <defs>
  <font id="LombardinaOne-Roman" horiz-adv-x="1393" vert-adv-y="1393" >
    <font-face
      
      font-family="Lombardina One"
      
      font-weight="400"
      
      font-stretch="normal"
      
      units-per-em="1000"
      
      ascent="741"
      
      descent="180"
      
    />
      <missing-glyph />

      

      
      <glyph glyph-name="uni21" unicode="&#x21;" d="M96-12Q99-12 107-5Q115 2 123.50 12Q132 22 138.50 30.50Q145 39 145 41Q145 45 139.50 52.50Q134 60 123 73Q117 81 114 84Q106 94 101 94Q99 94 87 83Q75 71 68 66Q49 50 49 43Q49 41 55 32.50Q61 24 69.50 13.50Q78 3 85.50-4.50Q93-12 96-12M82 265Q84 203 87 177Q90 151 97 151Q101 151 103 163Q105 175 110 224Q112 241 117.50 282.50Q123 324 128 358Q139 430 144 469.50Q149 509 149 520Q149 536 139 536Q132 536 96 521Q89 518 76 513Q66 509 66 493Q66 487 67.50 466.50Q69 446 72 416Q77 358 79.50 322.50Q82 287 82 265Z"  horiz-adv-x="198" vert-adv-y="1000"  />

      
      <glyph glyph-name="uni22" unicode="&#x22;" d="M234 729Q234 739 227 739Q225 739 208 731Q192 722 186 720Q162 711 162 684L162 536Q162 531 166 528.50Q170 526 175 526Q180 526 196 534Q204 538 208 540Q226 549 230 556.50Q234 564 234 585L234 729M394 729Q394 739 387 739Q385 739 368 731Q352 722 346 720Q322 711 322 684L322 536Q322 531 326 528.50Q330 526 335 526Q340 526 356 534Q364 538 368 540Q386 549 390 556.50Q394 564 394 585L394 729Z"  horiz-adv-x="555" vert-adv-y="1000"  />

      
      <glyph glyph-name="uni23" unicode="&#x23;" d="M573 216L462 216L482 339L590 339L602 391L493 391L521 555L463 555L435 391L303 391L331 555L273 555L246 391L127 391L115 339L235 339L215 216L98 216L86 164L204 164L176 0L233 0L261 164L394 164L366 0L423 0L451 164L561 164L573 216M425 339L405 216L272 216L292 339L425 339Z"  horiz-adv-x="667" vert-adv-y="1000"  />

      
      <glyph glyph-name="uni24" unicode="&#x24;" d="M220 234L220 85Q126 138 81 138Q73 138 62.50 125.50Q52 113 42 92Q32 71 26 46.50Q20 22 20-2Q20-14 26-14Q31-14 37 7Q50 49 65 49Q73 49 104 38Q135 27 178 10Q213-4 220-6L220-112Q220-123 229-123Q238-123 238-112L238-4L263 14Q316 53 337.50 70Q359 87 370.50 101.50Q382 116 385 130.50Q388 145 388 172Q388 207 364.50 235Q341 263 274 310L238 336L238 477Q279 451 291.50 444.50Q304 438 316 438Q326 438 339 451Q352 464 362.50 481Q373 498 381.50 513.50Q390 529 390 531Q390 537 382 537Q377 537 370 526Q361 510 353 510Q348 510 331.50 517Q315 524 297 533Q279 542 260.50 552Q242 562 238 564L238 602Q238 616 229 616Q220 616 220 602L220 558Q211 551 206 547.50Q201 544 185 535Q118 494 94.50 468.50Q71 443 71 394Q71 359 94 334Q117 309 191 255L220 234M220 348Q172 379 155 399.50Q138 420 138 446Q138 472 149 490Q160 508 175 508Q185 508 197 501.50Q209 495 220 486L220 348M238 220Q283 183 299.50 161Q316 139 316 115Q316 93 306 76Q296 59 282 59Q258 59 238 79L238 220Z"  horiz-adv-x="398" vert-adv-y="1000"  />

      
      <glyph glyph-name="uni25" unicode="&#x25;" d="M616 224Q616 265 600.50 285.50Q585 306 555 325Q543 332 536.50 335.50Q530 339 527 339Q523 339 508 331.50Q493 324 474.50 312.50Q456 301 440 289.50Q424 278 418 272Q397 249 397 190L397 66Q397 31 427 11Q447-2 468.50-13.50Q490-25 499-25Q505-25 525-10.50Q545 4 583 35Q606 54 611 64Q616 74 616 102L616 224M558 56Q558 25 547 25Q514 25 487 48Q460 71 460 99L460 260Q460 275 463 284.50Q466 294 476 294Q511 294 534.50 271Q558 248 558 213L558 56M269 440Q269 481 253.50 501.50Q238 522 208 541Q196 548 189.50 551.50Q183 555 180 555Q176 555 161 547.50Q146 540 127.50 528.50Q109 517 93 505.50Q77 494 71 488Q50 465 50 406L50 282Q50 247 80 227Q100 214 121.50 202.50Q143 191 152 191Q158 191 178 205.50Q198 220 236 251Q259 270 264 280Q269 290 269 318L269 440M211 272Q211 241 200 241Q167 241 140 264Q113 287 113 315L113 476Q113 491 116 500.50Q119 510 129 510Q164 510 187.50 487Q211 464 211 429L211 272M487 523Q497 541 497 546Q497 551 493 553Q489 555 481 555Q471 555 463 552.50Q455 550 451 543L184 7Q182 2 179-3Q174-13 174-16Q174-25 194-25Q201-25 207-22.50Q213-20 216-13L487 523Z"  horiz-adv-x="656" vert-adv-y="1000"  />

      
      <glyph glyph-name="uni26" unicode="&#x26;" d="M280 479Q294 494 323 524Q400 604 434 644Q420 653 420 653Q337 706 310 722.50Q283 739 275 739Q271 739 240 714Q209 689 175 656L84 569Q84 565 90.50 555Q97 545 109 529Q125 508 146 478.50Q167 449 186 420Q167 399 154 386Q141 373 116 351Q36 280 36 259Q36 254 59.50 212.50Q83 171 117.50 116.50Q152 62 179 24Q206-14 213-14Q219-14 233.50-5.50Q248 3 269 17.50Q290 32 308.50 45.50Q327 59 356 81L372 92Q375 88 381 80Q387 70 393 62Q418 25 432 10Q446-5 462-14Q479-8 504 10Q529 28 553.50 51Q578 74 594 93.50Q610 113 610 122Q610 128 604 128Q598 128 591 115Q583 100 571 90Q559 80 549 80Q532 80 513.50 101.50Q495 123 461 173Q537 237 537 305Q537 329 523 365Q531 364 557 361Q594 356 605 356Q660 356 690 391.50Q720 427 720 492Q720 511 712 511Q705 511 704 495Q700 454 637 454Q629 454 608 456.50Q587 459 564 462Q526 467 514 468.50Q502 470 496 470Q466 470 442 461Q418 452 398 430Q392 423 389 418.50Q386 414 379 404Q377 399 372 391Q363 375 358 369.50Q353 364 349 364L280 479M404 266Q400 274 397 279Q374 321 370 329Q366 337 366 341Q366 354 389.50 364Q413 374 438 374Q472 374 496.50 352Q521 330 521 299Q521 279 512.50 259.50Q504 240 492 225Q480 210 469.50 201Q459 192 456 192Q445 192 404 266M272 494Q232 543 208.50 580Q185 617 185 631Q185 643 194 651.50Q203 660 216 660Q229 660 250.50 645Q272 630 342 575Q344 573 348 570L272 494M363 112Q348 94 323 77.50Q298 61 293 61Q282 61 215 169L212 174L203 188Q163 252 145.50 286.50Q128 321 128 335Q128 340 136.50 350Q145 360 157.50 371Q170 382 180 389.50Q190 397 191 397Q200 397 210 379Q211 378 211 377L363 112Z"  horiz-adv-x="729" vert-adv-y="1000"  />

      
      <glyph glyph-name="uni27" unicode="&#x27;" d="M175 729Q175 739 168 739Q166 739 149 731Q133 722 127 720Q103 711 103 684L103 536Q103 531 107 528.50Q111 526 116 526Q121 526 137 534Q145 538 149 540Q167 549 171 556.50Q175 564 175 585L175 729Z"  horiz-adv-x="278" vert-adv-y="1000"  />

      
      <glyph glyph-name="uni28" unicode="&#x28;" d="M33 277Q33 189 50 120.50Q67 52 95.50 0.50Q124-51 155.50-88.50Q187-126 238-178Q241-181 244-181Q251-181 251-171Q251-166 249-164Q215-122 192-83.50Q169-45 153 5Q137 55 128 122Q119 189 119 280Q119 375 129.50 446Q140 517 158 567.50Q176 618 198 653Q220 688 251 726Q254 729 254 732Q254 740 244 740Q240 740 232 732Q184 685 148.50 640Q113 595 87 542.50Q61 490 47 424Q33 358 33 277Z"  horiz-adv-x="271" vert-adv-y="1000"  />

      
      <glyph glyph-name="uni29" unicode="&#x29;" d="M238 277Q238 358 224 423.50Q210 489 184 542.50Q158 596 123 640Q88 684 39 732Q31 740 27 740Q17 740 17 732Q17 729 20 726Q51 688 73.50 652.50Q96 617 114 567Q132 517 142 446Q152 375 152 280Q152 189 143.50 122Q135 55 118.50 5Q102-45 78.50-84Q55-123 22-164Q20-166 20-171Q20-181 27-181Q30-181 33-178Q84-126 116-88.50Q148-51 176 0.50Q204 52 221 120.50Q238 189 238 277Z"  horiz-adv-x="271" vert-adv-y="1000"  />

      
      <glyph glyph-name="uni2a" unicode="&#x2a;" d="M480 695L472 368L800 368Q817 368 820.50 365.50Q824 363 824 350Q824 347 822.50 335Q821 323 819 310Q816 294 816 292L472 292L469-62Q459-64 434-67Q409-70 394-71L396 292L53 292Q52 298 51 315.50Q50 333 50 344Q50 360 52 364Q54 368 63 368L399 368L404 695L480 695M370 126Q369 126 367 126Q365 125 364 125Q350 125 338.50 136Q327 147 327 171Q327 177 329 189Q332 202 332 209Q332 218 317 218Q301 218 288.50 219Q276 220 263 224Q250 228 241.50 236.50Q233 245 233 259Q233 259 234 263Q234 265 234 267L372 267L370 126M370 25Q330 30 290 51.50Q250 73 216 107Q182 141 158.50 182Q135 223 126 267L203 267Q205 257 213 235.50Q221 214 239.50 186.50Q258 159 291 134Q324 109 370 99L370 25M310 193Q310 186 304 179Q298 172 289 172Q281 172 278 177.50Q275 183 275 187Q275 194 281.50 200Q288 206 297 206Q301 206 305.50 202.50Q310 199 310 193M233 394Q233 407 248 425.50Q263 444 285 444Q292 444 306 441Q315 439 319 439Q330 439 330 444Q320 460 320 484Q320 501 339 520.50Q358 540 378 540L375 394L233 394M126 394Q126 402 137 436.50Q148 471 174.50 513.50Q201 556 252 591.50Q303 627 378 637L378 564Q365 562 345.50 555Q326 548 305 535Q284 522 262.50 501.50Q241 481 225 453Q216 438 204 410Q198 396 196 394L126 394M370 0L371-78Q371-91 379-91L420-89Q472-87 483-83.50Q494-80 494-69L494 0Q534 7 567 19Q600 31 633.50 54Q667 77 698 116Q729 155 756 213Q761 224 769 244Q777 263 780 267L821 267Q834 267 837 269.50Q840 272 842 285Q844 296 847 330.50Q850 365 850 394L795 394Q781 394 775.50 397Q770 400 766 414Q744 503 680.50 566.50Q617 630 509 665L506 667L506 705Q506 714 502.50 716.50Q499 719 484 719L394 716L394 716Q382 715 380 713Q378 711 378 702L378 667L372 663Q332 658 290.50 639.50Q249 621 211 588.50Q173 556 144 508Q115 460 101 399Q100 395 98 394.50Q96 394 90 394L34 394Q29 394 27.50 390Q26 386 26 372Q26 360 28 322Q29 294 29 284Q29 272 31 269.50Q33 267 40 267L98 267L102 263Q119 203 147 153.50Q175 104 237 56Q276 26 305.50 15.50Q335 5 367 1L370 0M494 100Q532 109 563 128Q594 147 616.50 172Q639 197 653 221.50Q667 246 673 267L747 267Q733 208 703.50 162.50Q674 117 637 87Q600 57 562.50 41.50Q525 26 494 24L494 100M498 267L650 267Q650 266 648 263Q638 243 625 227.50Q612 212 591 212Q586 212 576 214Q564 216 559 216Q550 216 550 207Q550 168 541 150.50Q532 133 494 121L498 267M499 394L503 538Q534 526 542 515Q550 504 550 491Q550 485 548 470Q545 455 545 449Q545 441 550 441Q556 441 568 443Q580 445 583 445Q610 445 626.50 430.50Q643 416 643 394L499 394M599 177Q599 166 595 163.50Q591 161 585 161Q577 161 571.50 167Q566 173 565 180Q565 185 569.50 190.50Q574 196 581 196Q599 196 599 177M309 481Q309 472 303.50 467.50Q298 463 292 463Q287 463 282 467Q277 471 277 476Q277 483 282 489Q287 495 295 495Q309 495 309 481M601 482Q601 462 582 462Q575 462 569 467Q563 472 563 476Q563 483 572 488.50Q581 494 592 494Q596 494 598.50 489.50Q601 485 601 482M676 394Q662 437 640.50 468.50Q619 500 595.50 520.50Q572 541 549 552Q526 563 505 568L506 638Q552 626 593.50 600.50Q635 575 666.50 542Q698 509 718 470.50Q738 432 743 394L676 394Z"  horiz-adv-x="875" vert-adv-y="1000"  />

      
      <glyph glyph-name="uni2b" unicode="&#x2b;" d="M67 234L301 234L301 0L365 0L365 234L599 234L599 298L365 298L365 532L301 532L301 298L67 298L67 234Z"  horiz-adv-x="667" vert-adv-y="1000"  />

      
      <glyph glyph-name="uni2c" unicode="&#x2c;" d="M74 57Q74 57 74 56Q73 55 73 54Q73 50 81 45Q123 17 123-33Q123-73 93-120Q83-135 83-139Q83-141 85-141Q91-141 109-126.50Q127-112 147-87Q167-62 180.50-29.50Q194 3 194 39Q194 51 191 57Q188 63 177 72L134 108Q130 111 128 111Q124 111 112.50 100Q101 89 74 57Z"  horiz-adv-x="250" vert-adv-y="1000"  />

      
      <glyph glyph-name="uni2d" unicode="&#x2d;" d="M53 278Q41 271 37.50 266.50Q34 262 34 256Q34 227 35 220Q36 213 39 213Q39 213 47 217.50Q55 222 66 228Q92 243 93 244Q142 272 154 280.50Q166 289 166 294Q166 305 163.50 321.50Q161 338 159 338Q156 338 131.50 324Q107 310 65 285L53 278Z"  horiz-adv-x="181" vert-adv-y="1000"  />

      
      <glyph glyph-name="uni2e" unicode="&#x2e;" d="M191 46Q195 50 195 53Q195 57 180 69L140 105Q134 111 128 111Q125 111 118.50 105.50Q112 100 105 92Q102 88 90 75Q78 62 74 57.50Q70 53 70 52Q70 50 72 47L73 45Q77 39 86 29Q95 19 105.50 8.50Q116-2 124-8Q132-14 136-14Q139-14 147-4L191 46Z"  horiz-adv-x="250" vert-adv-y="1000"  />

      
      <glyph glyph-name="uni2f" unicode="&#x2f;" d="M38-183L81-183L268 735L224 735L38-183Z"  horiz-adv-x="292" vert-adv-y="1000"  />

      
      <glyph glyph-name="uni30" unicode="&#x30;" d="M40 144Q40 102 56.50 77.50Q73 53 121 23L168-6Q181 3 190 10Q199 17 209 26Q219 35 231 47Q243 59 262 78Q291 108 299 124Q307 140 307 172Q307 202 308 245.50Q309 289 311 322Q313 391 313 413Q313 440 307.50 452.50Q302 465 278 491Q253 518 229.50 536.50Q206 555 198 555Q194 555 157.50 527Q121 499 83 466Q63 448 55.50 434.50Q48 421 48 399Q48 382 46.50 345.50Q45 309 44 286Q40 165 40 144M227 133Q227 103 224 91Q221 79 214 79Q212 79 199 86.50Q186 94 171 103Q145 120 135.50 131.50Q126 143 126 161Q126 186 127 217Q128 248 131 322Q133 378 134 403Q135 428 135 440Q135 482 149 482Q178 482 204.50 451Q231 420 231 371L227 133Z"  horiz-adv-x="335" vert-adv-y="1000"  />

      
      <glyph glyph-name="uni31" unicode="&#x31;" d="M216 27Q216 55 218 121Q220 187 221 241Q224 360 225 392.50Q226 425 226 448Q226 489 208 511Q190 533 141 555Q87 514 72 501Q57 488 57 481Q57 475 61 475Q64 475 73 477Q86 480 93 480Q116 480 129.50 459Q143 438 143 393Q143 378 142 338.50Q141 299 140.50 268.50Q140 238 137 162L135 87Q135 66 132.50 38.50Q130 11 128-18Q124-58 124-65Q124-73 131-73Q137-73 140-60Q148-28 161.50-17Q175-6 195-6Q209-6 212.50-0.50Q216 5 216 27Z"  horiz-adv-x="336" vert-adv-y="1000"  />

      
      <glyph glyph-name="uni32" unicode="&#x32;" d="M327 103Q327 109 323 109Q319 109 303 92Q296 84 288.50 81.50Q281 79 262 79Q253 79 227 82.50Q201 86 173 90Q159 92 158 92Q134 94 128.50 96Q123 98 123 103Q123 109 132 121Q141 133 155 147Q172 164 193.50 192Q215 220 235 253.50Q255 287 268 322Q281 357 281 387Q281 414 275.50 432.50Q270 451 257.50 466Q245 481 226.50 495Q208 509 173 533L171 534Q141 555 135 555Q133 555 115.50 545Q98 535 78.50 522Q59 509 44.50 495.50Q30 482 30 474Q30 469 34 469Q37 469 48 477Q58 484 65 488Q72 492 79 492Q90 492 112 479.50Q134 467 157 444.50Q180 422 196 390Q212 358 212 319Q212 285 196.50 247.50Q181 210 147 162Q138 149 125.50 133.50Q113 118 99 101Q85 84 73 71Q61 58 54 51Q38 36 28 23.50Q18 11 18 6Q18 0 22 0Q27 0 35 4Q61 16 84 16Q96 16 127.50 12Q159 8 221 0Q270-7 272-7Q286-7 296.50 8Q307 23 313.50 43.50Q320 64 323.50 82Q327 100 327 103Z"  horiz-adv-x="333" vert-adv-y="1000"  />

      
      <glyph glyph-name="uni33" unicode="&#x33;" d="M172 376L213 421Q308 528 308 541Q308 547 303 547Q301 547 291 545Q258 536 235 536Q214 536 191 539.50Q168 543 140 548Q106 555 96 555Q89 555 85.50 552Q82 549 74 535Q54 505 42.50 482.50Q31 460 31 445Q31 437 36 437Q42 437 47 451Q47 452 48 454Q55 474 71 474Q77 474 93 471L112 467Q138 462 154 459.50Q170 457 183 457Q201 456 207 455Q213 454 213 450Q213 443 200.50 427.50Q188 412 159 382Q130 351 115.50 333.50Q101 316 101 308Q101 298 131 289Q162 281 179 269Q196 257 204.50 239.50Q213 222 215.50 196.50Q218 171 218 129Q218 97 215.50 75Q213 53 206 35.50Q199 18 187 0.50Q175-17 154-39Q152-41 142-50Q127-63 116.50-72.50Q106-82 106-86Q106-90 113-90Q119-90 135-81.50Q151-73 171.50-58.50Q192-44 213-27.50Q234-11 251 5Q282 34 294 74.50Q306 115 306 190Q306 198 305 215.50Q304 233 303 245Q300 268 295.50 280.50Q291 293 280.50 304.50Q270 316 251 328.50Q232 341 194 363L172 376Z"  horiz-adv-x="333" vert-adv-y="1000"  />

      
      <glyph glyph-name="uni34" unicode="&#x34;" d="M189-85Q189-95 197-95Q202-95 204-91.50Q206-88 209-73Q212-52 221-36Q230-20 256-8Q266-4 269 0.50Q272 5 272 13L272 247Q272 254 285 254Q289 254 302 253Q316 251 319 251Q333 251 333 276Q333 295 325 295Q321 295 304 292Q289 290 286 290Q272 290 272 303L272 534Q272 549 268.50 559.50Q265 570 260 570Q250 570 115 391Q88 354 46 307Q15 270 15 264Q15 253 28 253Q31 253 47 254Q72 256 81 256Q96 256 126 255Q169 254 189 254L189-85M189 298Q189 294 182 291.50Q175 289 151 289Q118 289 104 289.50Q90 290 82 292Q71 294 71 299Q71 304 82.50 319.50Q94 335 133 385Q160 421 170.50 433.50Q181 446 186 446Q189 446 189 440L189 298Z"  horiz-adv-x="333" vert-adv-y="1000"  />

      
      <glyph glyph-name="uni35" unicode="&#x35;" d="M73 347Q114 320 135.50 302.50Q157 285 168.50 268Q180 251 184 229.50Q188 208 188 173Q188 113 183 74Q178 35 165.50 7.50Q153-20 130.50-39.50Q108-59 71-74Q55-80 50-83Q45-86 45-90Q45-98 54-98Q67-98 108.50-78.50Q150-59 197-32Q250-1 263 45Q276 91 276 182Q276 238 273 264.50Q270 291 258 313.50Q246 336 219 359.50Q192 383 138 421Q121 433 116 437Q111 441 101 449Q97 452 89 458Q107 476 118 483.50Q129 491 137 491Q144 491 157 485.50Q170 480 196 469Q217 460 230 454.50Q243 449 249 449Q258 449 271 459.50Q284 470 297 485Q310 500 318.50 514.50Q327 529 327 535Q327 541 323 541Q320 541 305 537Q292 534 289 534Q283 534 268.50 537Q254 540 233 545Q208 551 197.50 553Q187 555 182 555Q176 555 171 553.50Q166 552 158 545Q150 538 139 528Q128 518 89 479L89 479Q44 435 29 418.50Q14 402 14 396Q14 385 73 347Z"  horiz-adv-x="333" vert-adv-y="1000"  />

      
      <glyph glyph-name="uni36" unicode="&#x36;" d="M253 65Q273 82 282 91Q291 100 295.50 110Q300 120 301.50 135Q303 150 304 180Q305 214 306 229Q309 326 309 375Q309 386 295.50 401Q282 416 262.50 431.50Q243 447 225 458Q207 469 202 469Q196 469 188 458Q168 435 137 420Q143 478 158.50 514Q174 550 204 576L218 588Q229 597 236.50 604.50Q244 612 244 615Q244 619 238 619Q236 619 223.50 612Q211 605 168 578Q138 559 118 543Q98 527 82.50 505.50Q67 484 57.50 454Q48 424 47 381Q47 362 45 326Q42 220 42 163Q42 106 59.50 74Q77 42 132 8Q142 2 151-2.50Q160-7 162-7Q164-7 166-6Q168-5 173-1.50Q178 2 188 10.50Q198 19 222 39L253 65M130 379Q130 401 148 401Q154 401 167 394Q180 387 194.50 376.50Q209 366 218.50 355Q228 344 228 336L223 101Q223 84 221.50 76Q220 68 215 62Q179 77 154.50 106Q130 135 130 147L130 379Z"  horiz-adv-x="335" vert-adv-y="1000"  />

      
      <glyph glyph-name="uni37" unicode="&#x37;" d="M210-172Q217-177 224-177Q227-177 227-174Q227-172 225.50-167.50Q224-163 219-153Q211-138 202.50-116.50Q194-95 186.50-69Q179-43 174.50-19Q170 5 170 24Q170 66 181.50 127Q193 188 210.50 251.50Q228 315 245.50 370Q263 425 275 457Q287 490 292 507Q297 524 297 532Q297 534 291 534Q289 534 266 533Q249 532 244 532Q224 532 201 536Q178 540 148 546Q107 555 95 555Q86 555 81 549.50Q76 544 68 530L62 521Q50 501 41.50 484Q33 467 33 460Q33 455 40 455Q45 455 51 465Q58 477 75 477Q78 477 97 473.50Q116 470 120 469Q157 462 174.50 459Q192 456 202 455Q234 453 243.50 451Q253 449 253 444Q253 433 226 362Q200 294 181 237Q162 180 145 114Q130 52 121.50 1Q113-50 113-84Q113-103 118-110Q123-117 143-130L210-172Z"  horiz-adv-x="333" vert-adv-y="1000"  />

      
      <glyph glyph-name="uni38" unicode="&#x38;" d="M28 136Q28 114 33 99.50Q38 85 50.50 72Q63 59 85 44Q107 29 151 3L168-7Q183 0 193.50 6.50Q204 13 217.50 24Q231 35 249 51.50Q267 68 305 103Q318 137 318 175Q318 204 302.50 226.50Q287 249 243 286L210 314L242 340Q276 368 285 384Q294 400 294 437Q294 469 284 489.50Q274 510 234 536Q206 555 194 555Q191 555 178.50 547Q166 539 149.50 527Q133 515 112.50 497.50Q92 480 75 463Q58 446 52 432Q46 418 46 395Q46 368 61.50 339.50Q77 311 117 268Q66 237 47 210Q28 183 28 136M141 494Q173 494 198 460Q223 426 223 383Q223 361 212 343.50Q201 326 194 326Q190 326 164 353Q136 382 126 403Q116 424 116 453Q116 494 141 494M134 252Q195 212 224.50 176.50Q254 141 254 91Q254 70 238 70Q225 70 203 77Q181 84 159.50 98Q138 112 123 134Q108 156 108 184Q108 210 115 225Q122 240 130 250Q131 251 131 251Q133 252 134 252Z"  horiz-adv-x="333" vert-adv-y="1000"  />

      
      <glyph glyph-name="uni39" unicode="&#x39;" d="M36 201Q36 165 38 144Q40 123 49 102.50Q58 82 79 59.50Q100 37 136 12L140 10Q146 6 147 6Q152 6 160.50 12Q169 18 182 29Q194 40 202 45.50Q210 51 214 51Q222 51 222 37Q222-4 215-46Q208-88 193-109Q187-117 176.50-127Q166-137 149-152Q129-169 129-171Q129-177 136-177Q145-177 164.50-168Q184-159 207-145.50Q230-132 249-118.50Q268-105 276-97Q301-69 308.50 45Q316 159 316 394Q316 432 314 449Q312 466 303 480.50Q294 495 274.50 510Q255 525 214 551Q206 555 205 555Q203 555 186 546Q169 537 145.50 523Q122 509 103 496Q84 483 76 475Q58 456 47 380.50Q36 305 36 201M117 239Q117 252 118.50 276Q120 300 122 338Q122 346 124 375Q128 448 133.50 469Q139 490 154 490Q159 490 171 481Q172 480 173 480Q198 461 208 452.50Q218 444 223.50 434.50Q229 425 230 412.50Q231 400 231 370Q231 324 232 268Q232 183 232 167Q232 106 230.50 93Q229 80 222 80Q213 80 181 100Q143 126 130 154Q117 182 117 239Z"  horiz-adv-x="336" vert-adv-y="1000"  />

      
      <glyph glyph-name="uni3a" unicode="&#x3a;" d="M134 107Q128 112 122 112Q117 112 106 99Q94 85 74 64Q64 53 64 52Q64 45 82 31L126-8Q130-12 134-12Q137-12 142-5L186 47Q190 51 190 54Q190 57 176 70L134 107M131 555Q126 560 120 560Q113 560 99 543Q99 543 94 537Q78 519 71 509.50Q64 500 64 496Q64 488 80 474L118 441Q123 436 126 436Q128 436 144 451Q159 465 165 471Q176 481 183 489Q190 497 190 500Q190 501 185 507Q180 513 174 518L131 555Z"  horiz-adv-x="250" vert-adv-y="1000"  />

      
      <glyph glyph-name="uni3b" unicode="&#x3b;" d="M74 57Q74 57 73 56Q73 55 73 54Q73 51 80 46Q81 45 81 45Q123 17 123-33Q123-73 93-120Q83-135 83-139Q84-140 85-140Q91-140 109-125.50Q127-111 146.50-87Q166-63 180-30Q194 3 194 39Q194 51 191 57.50Q188 64 177 72L134 108Q130 111 128 111Q122 111 102 90L74 57M128 561Q125 561 118 553L78 508L78 507Q78 506 79 504L100 481Q112 467 123.50 458Q135 449 137 449Q139 449 145 457L177 494Q180 497 182.50 503Q185 509 185 512Q185 516 179 520L132 559L128 561Z"  horiz-adv-x="250" vert-adv-y="1000"  />

      
      <glyph glyph-name="uni3c" unicode="&#x3c;" d="M598 83L155 266L598 448L598 518L69 295L69 237L598 14L598 83Z"  horiz-adv-x="667" vert-adv-y="1000"  />

      
      <glyph glyph-name="uni3d" unicode="&#x3d;" d="M67 349L599 349L599 413L67 413L67 349M67 119L599 119L599 183L67 183L67 119Z"  horiz-adv-x="667" vert-adv-y="1000"  />

      
      <glyph glyph-name="uni3e" unicode="&#x3e;" d="M69 14L598 237L598 295L69 518L69 448L512 266L69 83L69 14Z"  horiz-adv-x="667" vert-adv-y="1000"  />

      
      <glyph glyph-name="uni3f" unicode="&#x3f;" d="M224 341Q178 325 122 322Q48 318 48 298Q48 284 59 261Q70 238 86.50 214.50Q103 191 118 175.50Q133 160 141 160Q145 160 145 165Q145 169 136 179Q125 191 116 207Q107 223 107 232Q107 238 121.50 244.50Q136 251 165 261Q198 271 202 275Q209 281 219.50 298Q230 315 240.50 339.50Q251 364 258.50 393Q266 422 266 449Q266 473 253 492Q240 511 222.50 523.50Q205 536 189 542.50Q173 549 168 549Q159 549 146.50 540Q134 531 121 517.50Q108 504 99.50 492Q91 480 91 476Q91 472 94 472Q97 472 111 478Q123 483 125 483Q169 483 197.50 446.50Q226 410 226 353Q226 345 224 341M200 45Q201 45 203 49Q205 53 205 55Q205 56 198 64.50Q191 73 181.50 82.50Q172 92 162.50 99.50Q153 107 148 107Q145 107 135.50 98Q126 89 115 77Q104 65 96 55Q88 45 88 43Q88 39 95.50 30.50Q103 22 114.50 12Q126 2 135-5Q144-12 146-12Q152-12 167 6L200 45Z"  horiz-adv-x="302" vert-adv-y="1000"  />

      
      <glyph glyph-name="uni40" unicode="&#x40;" d="M389 372Q393 388 403 388Q407 388 419 384.50Q431 381 445.50 376Q460 371 469.50 365.50Q479 360 480 356L438 93Q437 84 418.50 71.50Q400 59 390 59Q384 59 366.50 71.50Q349 84 348 89Q348 91 348 96Q347 100 347 103Q347 105 348 110Q348 114 348 117L389 372M265 75Q264 66 253 60Q245 55 245 50Q245 48 252 43L291 9Q305-3 312-3Q328-3 361 13.50Q394 30 432 55L429 36Q425 19 425 11Q425 2 428.50-0.50Q432-3 439-3Q585-3 673.50 74.50Q762 152 762 290Q762 359 738.50 417.50Q715 476 674 518Q633 560 580 582.50Q527 605 470 605Q378 605 302 572Q226 539 171.50 481.50Q117 424 88.50 351Q60 278 60 200Q60 111 85 41.50Q110-28 153-74.50Q196-121 251-145.50Q306-170 367-171Q415-171 468-158Q521-145 567-111Q572-107 572-100Q572-89 563-76.50Q554-64 546-64Q546-64 545-65Q543-65 543-65Q495-97 458.50-107Q422-117 383-117Q318-117 267-90.50Q216-64 182-19Q148 26 131.50 80Q115 134 115 188Q115 257 138.50 322Q162 387 207 439Q252 491 316 521Q380 551 458 551Q516 551 562.50 528.50Q609 506 641.50 469Q674 432 690.50 388Q707 344 707 302Q707 255 693.50 211Q680 167 655.50 133Q631 99 599 79.50Q567 60 530 60Q514 60 514 87Q514 90 514 93Q515 98 515 100L561 379Q563 387 570 391Q575 395 575 400Q575 403 558.50 411Q542 419 518 428.50Q494 438 472.50 445Q451 452 447 452Q444 452 433.50 447.50Q423 443 412 436Q394 425 374 414Q354 403 337 397Q320 390 316.50 387Q313 384 311 373L265 75Z"  horiz-adv-x="802" vert-adv-y="1000"  />

      
      <glyph glyph-name="uni41" unicode="&#x41;" d="M69 202Q69 162 85 138.50Q101 115 133 115Q158 115 179 122L182 118Q158 37 121.50-28Q85-93 46-139L52-147Q63-139 74-127.50Q85-116 99-97Q103-92 107-86Q111-80 123-59Q137-36 146-22.50Q155-9 158-7Q162-5 188-3Q214-1 252 0.50Q290 2 328.50 2.50Q367 3 394 3Q448 3 538 2Q628 0 682 0Q697 0 727 1Q757 2 772 2Q798 2 850-1Q888-3 906-3L908 12L815 23Q808 29 802.50 86.50Q797 144 794 221.50Q791 299 789.50 367.50Q788 436 788 457Q788 517 790 568Q792 619 794 637Q797 658 811 661L880 676Q880 685 875 691Q818 675 703.50 670Q589 665 387 665Q273 665 179 674Q130 679 67 690L61 691L57 681L59 676Q111 666 167 661.50Q223 657 315 651Q345 650 371 648Q311 599 260 549.50Q209 500 170 447Q122 381 95.50 321Q69 261 69 202M257 296Q274 303 298.50 308.50Q323 314 349 317.50Q375 321 396 323.50Q417 326 440 328Q447 329 447 329Q447 326 443 322Q436 313 436 302Q436 293 446.50 285.50Q457 278 471 278Q488 278 496 287Q504 296 504 308Q504 312 500 318Q495 325 495 329Q513 331 544.50 333Q576 335 589 335Q622 335 622 302L622 176Q622 162 620.50 138.50Q619 115 616 90.50Q613 66 608 48Q603 30 597 27Q592 24 549 22Q506 20 440 19Q374 18 332.50 17.50Q291 17 272 17L164 18Q166 26 172.50 43Q179 60 188 82Q203 122 205 128L257 296M444 373L388 372Q352 372 331.50 373.50Q311 375 304 377Q292 382 292 395Q292 417 304 455Q316 493 335 534Q354 575 373 605.50Q392 636 406 644Q411 646 426.50 647.50Q442 649 468 650Q496 651 539 651Q574 651 591 648.50Q608 646 611 634Q616 618 618.50 596.50Q621 575 622.50 549.50Q624 524 624.50 507Q625 490 625 472Q625 420 620.50 407.50Q616 395 604 391Q581 386 546 381Q511 376 489 376L483 382Q500 394 500 402Q500 410 492.50 421Q485 432 468 432Q455 432 446 424Q437 416 437 407Q437 390 446 379L444 373M770 653Q779 653 779 642Q779 639 778 627Q775 596 773 552.50Q771 509 771 438Q771 326 775 240Q779 154 785 83Q788 44 788 35Q788 24 777 24Q755 24 750 26Q745 28 745 39Q744 58 743 112.50Q742 167 740 247.50Q738 328 737 399Q736 470 736 510Q736 521 737 550Q738 579 738.50 595Q739 611 740.50 629.50Q742 648 743 649L770 653Z"  horiz-adv-x="885" vert-adv-y="1000"  />

      
      <glyph glyph-name="uni42" unicode="&#x42;" d="M127 656Q127 670 115 683.50Q103 697 88 697Q60 697 60 671Q60 664 64 664L77 671Q81 671 85.50 666Q90 661 90 654Q90 647 84.50 638Q79 629 65 612Q58 603 53.50 594Q49 585 49 574Q49 558 60.50 546.50Q72 535 95 535Q99 535 113 535Q128 536 138 536Q145 536 147.50 530.50Q150 525 151 516Q153 504 154 478.50Q155 453 156 418Q157 369 157 328Q157 252 152 172Q147 92 138 21Q93-1 63.50-26.50Q34-52 34-78Q34-93 43-102Q52-111 62-111Q73-111 82.50-102Q92-93 92-87Q92-81 87-81L76-86Q66-86 66-70Q66-40 126.50-13Q187 14 283 14Q315 14 340 11.50Q365 9 402 3Q443-3 470-6Q497-9 533-9Q609-9 664.50 7.50Q720 24 754 51.50Q788 79 803.50 112.50Q819 146 819 181Q819 248 773 291Q727 334 658 348L654 353Q716 367 751 397Q786 427 786 484Q786 523 766 558.50Q746 594 710 620.50Q674 647 626 662Q578 677 524 677Q498 677 478.50 674.50Q459 672 438 665.50Q417 659 390 648.50Q363 638 310 616L280 604Q260 596 234.50 587.50Q209 579 181 571.50Q153 564 130.50 559.50Q108 555 94 555Q83 555 74 560Q65 565 65 573Q65 585 72.50 593.50Q80 602 95 613Q111 625 119 634Q127 643 127 656M364 589Q336 520 322.50 452.50Q309 385 309 311Q309 255 317.50 203Q326 151 346 108Q350 98 359 84Q371 65 371 58Q371 51 365.50 49Q360 47 350 47Q338 47 330.50 57.50Q323 68 308 101Q290 142 283 196.50Q276 251 276 309Q276 395 288 467.50Q300 540 314 564L315 565Q319 572 328.50 578.50Q338 585 364 594L364 589M644 205Q644 116 607.50 68Q571 20 504 20Q467 20 435.50 35Q404 50 379 82.50Q354 115 340 169Q326 223 326 299Q326 371 335 434.50Q344 498 364.50 548Q385 598 420 627Q455 656 505 656Q561 656 594 612.50Q627 569 627 491Q627 466 624 444Q621 422 613 406Q604 389 585 377.50Q566 366 550 366Q529 366 510 385.50Q491 405 491 431Q491 440 496 446.50Q501 453 508 453Q526 453 526 428Q532 428 539 433Q546 438 546 448Q546 463 531.50 475.50Q517 488 499 488Q476 488 457.50 472Q439 456 439 430Q439 416 443.50 405Q448 394 458 379Q456 379 452 379Q444 380 444 380Q410 380 382 365Q367 357 356.50 341.50Q346 326 346 318Q346 311 351 311Q353 311 360 318Q363 321 364 322Q369 325 379 325Q391 325 421 321Q448 317 458 317Q466 317 470 319L472 317Q459 305 451 292Q443 279 443 264Q443 241 461 220.50Q479 200 508 200Q531 200 551 213.50Q571 227 571 253Q571 261 567.50 268Q564 275 560 275Q560 275 559 273Q552 265 545.50 259.50Q539 254 531 254Q519 254 508.50 263.50Q498 273 498 290Q498 312 516 327.50Q534 343 559 343Q600 343 622 307Q644 271 644 205Z"  horiz-adv-x="844" vert-adv-y="1000"  />

      
      <glyph glyph-name="uni43" unicode="&#x43;" d="M714-49Q710-13 707.50 10.50Q705 34 703.50 56Q702 78 701.50 102Q701 126 701 162Q701 200 702.50 271.50Q704 343 707 417Q710 491 714.50 559Q719 627 723 659L727 679Q727 690 720 690Q715 690 704 673Q693 656 690 636L689 633Q686 616 682 616Q625 660 562.50 680.50Q500 701 438 701Q344 701 265 664.50Q186 628 130 568Q98 535 79 500.50Q60 466 51 434Q42 402 39.50 376.50Q37 351 37 325Q37 210 85 138.50Q133 67 201 33.50Q269 0 327-9.50Q385-19 425-19Q478-19 518-12Q558-5 604 10L673 35Q680 35 682.50 26Q685 17 688-19L689-26Q690-41 693-60.50Q696-80 699.50-97Q703-114 708-125.50Q713-137 719-137Q725-137 725-129L714-49M679 198Q679 178 678 167.50Q677 157 672.50 146.50Q668 136 657.50 124Q647 112 628 94Q571 41 541 23Q511 5 464 5Q413 5 369.50 29Q326 53 294 98Q262 143 244.50 205.50Q227 268 227 344Q227 405 243.50 465.50Q260 526 289.50 574.50Q319 623 358.50 651.50Q398 680 442 680Q484 680 527 663Q570 646 605.50 613Q641 580 663 530Q685 480 685 417L679 198M168 325Q168 385 180.50 433Q193 481 211 512Q229 543 245 559.50Q261 576 266 576Q230 510 219 454Q208 398 208 328Q208 283 216.50 241Q225 199 237 165.50Q249 132 260.50 109Q272 86 283 69Q270 69 256 81.50Q242 94 227 113Q226 114 226 114Q204 143 186 194.50Q168 246 168 325Z"  horiz-adv-x="760" vert-adv-y="1000"  />

      
      <glyph glyph-name="uni44" unicode="&#x44;" d="M96 673Q101 673 101 679Q101 686 90.50 693.50Q80 701 66 701Q45 701 37 687Q29 673 29 660Q29 636 43.50 620.50Q58 605 81 597.50Q104 590 128 587.50Q152 585 179 585Q188 585 192.50 577.50Q197 570 199 559Q203 529 206.50 472Q210 415 210 368Q210 277 208 213Q206 149 202 80L202 78Q200 39 196 29.50Q192 20 174 18Q168 18 150 15Q132 12 114 8Q96 4 82-2.50Q68-9 68-17Q68-21 73-21L90-14Q123-3 155.50 0Q188 3 218 3Q306 3 378-1Q390-2 436-5Q493-8 519-9.50Q545-11 557-11Q591-11 622.50-8Q654-5 688 5.50Q722 16 756.50 37.50Q791 59 821 93Q854 130 879 189.50Q904 249 904 330Q904 415 879 483.50Q854 552 808 599Q762 646 700 670.50Q638 695 565 695Q516 695 471.50 684Q427 673 348 645Q278 620 236 610Q194 600 160 600Q113 600 87.50 616.50Q62 633 62 650Q62 660 67 668Q72 676 82 676L96 673M372 328Q372 390 378.50 449Q385 508 401.50 559.50Q418 611 450 643Q482 675 530 675Q555 675 586 662.50Q617 650 648.50 614Q680 578 701.50 508.50Q723 439 723 332Q723 223 698 155Q673 87 638.50 56Q604 25 576 16Q548 7 532 7Q478 7 444 44.50Q410 82 395 136Q380 190 376 238Q372 286 372 328M423 36Q423 32 415.50 30Q408 28 402 28Q377 28 368 38Q359 48 349 78L349 78Q314 186 314 326Q314 438 329.50 513.50Q345 589 360 610Q367 620 382 625.50Q397 631 407 631Q414 631 414 625Q414 623 409 614Q401 600 393 582Q385 564 376.50 530Q368 496 362.50 444Q357 392 357 321Q357 232 371.50 165.50Q386 99 415 51L423 36M838 311Q838 374 829.50 422Q821 470 807.50 503.50Q794 537 778 559.50Q762 582 742 600Q739 603 727.50 612.50Q716 622 710 626Q694 638 685 645.50Q676 653 676 654Q676 657 679.50 658Q683 659 686 659Q694 659 727 642.50Q760 626 797.50 589.50Q835 553 863 488.50Q891 424 891 334Q891 290 880.50 240Q870 190 839 137Q835 130 821 114Q807 98 790 81.50Q773 65 758 53.50Q743 42 736 42Q733 42 733 45Q733 48 737.50 53Q742 58 749 66Q756 73 757 75Q796 130 817 189Q838 248 838 311Z"  horiz-adv-x="927" vert-adv-y="1000"  />

      
      <glyph glyph-name="uni45" unicode="&#x45;" d="M36 321Q36 163 142 76.50Q248-10 434-10Q493-10 535-2.50Q577 5 604 16Q631 27 646 38.50Q661 50 677 65L677 65Q677 50 680 16.50Q683-17 687.50-54Q692-91 699.50-116.50Q707-142 717-142Q724-142 724-134L706 5Q704 22 702.50 69Q701 116 700 192Q699 275 699 409Q699 475 703 523.50Q707 572 712.50 602.50Q718 633 723.50 649.50Q729 666 736 681Q743 696 743 703Q743 710 736 710Q730 710 724 697.50Q718 685 709 660Q700 637 695 626.50Q690 616 686 616Q684 616 677 621Q670 626 666 628Q600 667 546.50 684Q493 701 436 701Q384 701 317.50 683Q251 665 186 622Q121 579 78.50 504Q36 429 36 321M423 328Q447 328 485.50 326.50Q524 325 562 323Q600 321 631 317.50Q662 314 669 309Q676 304 678 283.50Q680 263 680 225Q680 195 679 180.50Q678 166 675.50 155.50Q673 145 666 135Q659 125 645 112Q611 78 585.50 58Q560 38 540 29Q520 20 505.50 17.50Q491 15 472 15Q360 15 300 96.50Q240 178 229 320Q245 322 268 324Q291 326 324 327Q371 328 423 328M229 378Q229 433 244.50 486.50Q260 540 288.50 585Q317 630 357.50 656Q398 682 446 682Q486 682 526 666.50Q566 651 600 619.50Q634 588 654.50 539.50Q675 491 675 427Q675 416 672 404Q663 399 639.50 396Q616 393 592 392Q578 391 532 388Q457 383 397.50 379.50Q338 376 282 376Q257 376 249.50 376Q242 376 229 378M297 62Q269 69 244.50 96Q220 123 202 164Q184 205 174 251Q164 297 164 340Q164 421 190 488.50Q216 556 272 594L274 592Q241 540 225.50 477.50Q210 415 210 347Q210 259 236 181Q262 103 299 64L297 62Z"  horiz-adv-x="760" vert-adv-y="1000"  />

      
      <glyph glyph-name="uni46" unicode="&#x46;" d="M17-14L24-13Q70-8 88-6Q106-4 150-3L373 1L505-4Q513-4 519-2Q519 6 514 8.50Q509 11 486 15Q477 17 459.50 18.50Q442 20 419.50 21.50Q397 23 379 23.50Q361 24 352 24Q341 24 341 34L337 102L334 256L338 320Q339 329 348 329L414 327L430 327Q465 326 487 325Q509 324 524.50 323Q540 322 560 320.50Q580 319 618 316Q649 313 659 309Q669 305 674 296L675 211Q675 203 677.50 177Q680 151 682 132L682 128L682 126Q683 119 684.50 114.50Q686 110 690 110Q697 110 697 121L696 335Q696 360 695 420Q694 467 694 486Q694 563 697.50 617.50Q701 672 710 717L697 717L697 716Q696 698 690 693Q684 688 658 688L580 684L362 679Q316 679 244 680Q204 680 173 681Q142 682 130 683L37 688Q37 677 51 674Q55 673 81 668Q105 663 120 659.50Q135 656 141 653Q147 650 150.50 638Q154 626 156.50 597.50Q159 569 160.50 517.50Q162 466 162 380Q162 343 161.50 296.50Q161 250 159.50 209.50Q158 169 155.50 127.50Q153 86 149 67Q143 34 137 26Q131 18 116 16L115 16Q113 16 111 16Q79 13 52 8.50Q25 4 17-5L17-14M317 495L317 218Q317 187 317.50 157.50Q318 128 319 96L322 42Q322 28 317 23Q312 18 299 18Q290 18 286 20Q282 22 279.50 32Q277 42 275.50 62.50Q274 83 274 125L277 596Q278 640 282.50 650Q287 660 300 660Q314 660 318 654Q322 648 322 636L317 495M674 514Q674 477 671 459.50Q668 442 662 426L662 425Q641 414 607.50 405Q574 396 533 389Q492 382 450 378.50Q408 375 370 375Q346 375 340.50 380Q335 385 335 407L336 539L342 643Q342 650 343.50 653Q345 656 352 656Q360 656 391.50 652Q423 648 470.50 636Q518 624 572 600.50Q626 577 672 540L674 514Z"  horiz-adv-x="740" vert-adv-y="1000"  />

      
      <glyph glyph-name="uni47" unicode="&#x47;" d="M679 402Q682 408 683 410.50Q684 413 685 421L685 422Q694 524 715 588Q736 652 757 691Q761 698 761 699Q761 705 756 705Q749 705 713 638Q709 630 704 621Q698 610 696 607.50Q694 605 690 605Q686 605 674.50 612Q663 619 645 631Q634 639 630 641Q571 672 523 682Q475 692 432 692Q351 692 278.50 664Q206 636 151 585.50Q96 535 65.50 467Q35 399 35 322Q35 264 54.50 205Q74 146 120 95.50Q166 45 246.50 13.50Q327-18 441-18Q527-18 590.50 3.50Q654 25 693.50 60.50Q733 96 751 140Q769 184 769 231Q769 247 767 263Q765 279 756 301Q747 323 728 348Q709 373 678 398L679 402M661 415Q658 415 651.50 417.50Q645 420 636 423Q626 427 624 427Q572 443 522 443Q478 443 444 430Q410 417 387.50 396Q365 375 353.50 351Q342 327 342 306Q342 285 352.50 258Q363 231 391 200L394 197Q419 169 424.50 161.50Q430 154 430 144Q430 134 425.50 126.50Q421 119 415 119Q411 119 403 127L398 132Q394 137 387 139.50Q380 142 377 142Q368 142 361 136.50Q354 131 354 122L357 111Q367 123 373 123Q376 123 379.50 120.50Q383 118 392 109Q405 98 421 98Q446 98 466 118.50Q486 139 486 175Q486 206 475 219Q464 232 446 240L446 242Q463 244 474.50 256.50Q486 269 486 285Q486 299 476.50 315Q467 331 445 331Q432 331 425.50 325.50Q419 320 419 317Q419 314 429 312Q431 311 432 311Q437 310 441 304.50Q445 299 445 294Q445 277 424 277Q410 277 395 292Q380 307 380 331Q380 365 404 385Q428 405 461 405Q516 405 554.50 352.50Q593 300 593 215Q593 192 589 159.50Q585 127 571.50 91Q558 55 528 29Q498 3 450 3Q407 3 366.50 26.50Q326 50 294 94Q262 138 243.50 200.50Q225 263 225 336Q225 396 238 455.50Q251 515 277.50 564.50Q304 614 346 643.50Q388 673 443 673Q489 673 524.50 655Q560 637 583.50 611Q607 585 620 561.50Q633 538 644 512L644 512L645 510Q657 480 663 459Q669 438 669 417L661 415M308 48Q270 60 242 91.50Q214 123 197 164.50Q180 206 172.50 249.50Q165 293 165 331Q165 365 169.50 399Q174 433 185.50 467.50Q197 502 218.50 533.50Q240 565 271 590L273 588Q247 543 228 482.50Q209 422 209 336Q209 250 233 176Q257 102 310 50L308 48Z"  horiz-adv-x="792" vert-adv-y="1000"  />

      
      <glyph glyph-name="uni48" unicode="&#x48;" d="M480-79Q481-79 487-81Q500-86 503-86Q515-86 525-76Q535-66 535-50Q535-27 515.50-14.50Q496-2 474 4Q469 5 454 8Q439 11 421.50 14.50Q404 18 391.50 20Q379 22 376 22Q373 24 368.50 44.50Q364 65 359.50 100.50Q355 136 352.50 177.50Q350 219 350 263Q350 286 350.50 307.50Q351 329 352.50 349.50Q354 370 357.50 390.50Q361 411 367 421Q398 475 434.50 507Q471 539 523 539Q571 539 609.50 508Q648 477 667 426Q679 397 684 354.50Q689 312 693 229Q696 166 702.50 104.50Q709 43 727-23Q745-89 780-133.50Q815-178 870-178Q892-178 911.50-163Q931-148 931-122Q931-95 913-79.50Q895-64 877-64Q866-64 856.50-58.50Q847-53 847-35Q847-20 853.50-11Q860-2 869-2Q877-2 884-9L895-23Q900-23 900-18Q900-3 887.50 5.50Q875 14 857 14Q836 14 817.50 2.50Q799-9 799-35Q799-64 815-74.50Q831-85 873-94Q913-101 913-122Q913-137 900-149Q887-161 864-161Q804-161 762-67Q754-49 746.50-25.50Q739-2 733.50 20.50Q728 43 724 60Q720 77 720 78Q720 81 722 85.50Q724 90 728 90Q730 90 745 85Q751 83 753 82L759 80Q776 76 785 76Q800 76 816 81.50Q832 87 847 101.50Q862 116 871.50 143Q881 170 881 209Q881 280 852 344.50Q823 409 773 458.50Q723 508 661 535.50Q599 563 535 563Q504 563 462 548.50Q420 534 354 487Q354 517 355.50 558.50Q357 600 359 648Q360 654 361 682Q361 704 358 712Q355 720 348 720L284 697Q230 679 203.50 672.50Q177 666 147 666Q115 666 88.50 674.50Q62 683 62 700L67 712Q67 717 59 717Q53 717 48.50 714Q44 711 44 703Q44 691 55 677.50Q66 664 85 656Q102 649 122 647Q142 645 174 645Q181 645 183 627Q185 612 186.50 562Q188 512 188 462L188 368Q188 227 185 156Q182 85 172 43Q167 21 159.50 15.50Q152 10 136 10Q124 10 109 9.50Q94 9 79.50 7Q65 5 53.50 0Q42-5 39-12L54-14Q58-14 73-12Q88-10 99-9Q115-7 122-6Q126-6 146-5Q205-2 243.50-0.50Q282 1 311 1Q412 1 456.50-11Q501-23 501-54Q501-62 495.50-66Q490-70 480-72L480-72L480-79M346 33Q346 19 330 19Q319 19 315 25Q311 31 308 45L308 45Q300 89 298 139Q296 189 296 253Q296 320 297 378Q298 436 299.50 482.50Q301 529 303.50 576Q306 623 310 676Q311 687 322 692Q333 697 339 697Q347 697 347 687L338 486Q337 457 336 418Q335 379 335 309Q335 248 337 194Q339 140 341 106L346 33Z"  horiz-adv-x="927" vert-adv-y="1000"  />

      
      <glyph glyph-name="uni49" unicode="&#x49;" d="M468 26Q447 26 441.50 28.50Q436 31 432 44L432 45Q424 72 418.50 92.50Q413 113 408 150Q403 187 400 242Q397 297 397 375Q397 397 399 436Q401 475 404 514.50Q407 554 412.50 592.50Q418 631 425 652Q427 652 439 655Q455 657 474 661Q493 665 508 668.50Q523 672 533.50 677Q544 682 544 687Q544 695 532 695Q527 695 522 694Q517 693 506 690L483 684Q451 676 388 671Q325 666 265 666Q203 666 151 674.50Q99 683 89 691Q87 693 87 696Q87 699 87 711Q87 716 82 719.50Q77 723 71 723Q57 723 57 707Q57 685 78 673Q99 661 120 656Q127 655 163 651Q184 648 199.50 646Q215 644 221 643Q222 629 223.50 595Q225 561 226 511Q227 461 228 403Q229 345 229 289Q229 206 227 136.50Q225 67 221 22Q221 22 210 21Q174 19 150.50 17.50Q127 16 119 14Q105 12 90 5.50Q75-1 75-15Q75-24 87-24Q89-24 104-18Q115-14 117-14Q147-9 185.50-5.50Q224-2 266 0Q308 2 345 2.50Q382 3 403 3Q424 3 486 1Q549-2 569-2Q582-2 582 6Q582 13 571 16Q560 19 545 20L545 20L468 26M409 36Q409 26 383 26Q370 26 361.50 69Q353 112 349.50 174Q346 236 345 284Q344 332 344 367Q344 476 350 556.50Q356 637 359 642Q361 647 376 648.50Q391 650 402 650Q398 636 394.50 604.50Q391 573 388 533Q385 493 383 454Q381 415 381 388Q381 319 382 269.50Q383 220 385.50 190Q388 160 390.50 138.50Q393 117 398 90L409 36Z"  horiz-adv-x="552" vert-adv-y="1000"  />

      
      <glyph glyph-name="uni4a" unicode="&#x4a;" d="M118-176Q119-158 129.50-152Q140-146 149-146Q158-146 168-148.50Q178-151 202-160Q231-170 254-173Q277-176 297-176Q417-176 477.50-104.50Q538-33 538 97Q538 138 535.50 174Q533 210 524 297L523 307Q518 347 515 387.50Q512 428 512 456Q512 537 533 601Q544 634 551.50 646.50Q559 659 574 673Q624 687 651.50 697Q679 707 679 715Q679 717 675 720Q673 721 673 721Q642 704 558 686Q474 668 341 668Q311 668 278.50 669Q246 670 208 674.50Q170 679 143.50 688.50Q117 698 117 714Q117 717 119 721Q121 724 121 724Q102 724 91.50 714Q81 704 81 692Q81 675 92.50 665Q104 655 122 650.50Q140 646 160.50 645Q181 644 210 644Q195 629 186.50 616.50Q178 604 178 588Q178 570 195 557.50Q212 545 232 545Q259 545 281 554Q303 563 362 595Q366 597 370 599Q438 636 475.50 647.50Q513 659 543 659Q513 626 485 590Q457 554 424.50 499.50Q392 445 370 379.50Q348 314 348 246Q348 198 366.50 167.50Q385 137 431 102Q458 82 471.50 71Q485 60 493 51Q507 34 507 9Q507-23 492.50-53Q478-83 453-106.50Q428-130 397.50-143Q367-156 336-156Q318-156 296-150.50Q274-145 243-129L241-128Q201-109 186.50-103.50Q172-98 155-98Q132-98 119-114Q106-130 106-149Q106-159 111-176L118-176Z"  horiz-adv-x="625" vert-adv-y="1000"  />

      
      <glyph glyph-name="uni4b" unicode="&#x4b;" d="M64 709Q57 709 57 703Q57 694 79.50 688.50Q102 683 144 678Q167 675 180.50 672.50Q194 670 197 667Q205 661 210 624Q215 587 217 536.50Q219 486 220 441.50Q221 397 221 373Q221 265 216 204Q211 143 201 86L201 83L201 80Q196 54 191 39.50Q186 25 176 15Q149 6 132-1Q115-8 102-16Q75-33 59.50-60.50Q44-88 44-108Q44-113 46-121Q48-129 51-135Q53-138 57-139Q61-140 64-140Q68-140 72.50-136Q77-132 77-127Q77-122 75.50-120.50Q74-119 69-116Q68-116 67-115Q64-109 64-101Q64-74 91.50-49.50Q119-25 155-12Q180-3 223.50-0.50Q267 2 325 2L614 0Q724 0 753 0Q782 0 843-2L945-8Q956-8 956 9Q941 13 924.50 15.50Q908 18 901 18Q894 18 891.50 21Q889 24 888 35Q886 57 877 98.50Q868 140 857 171Q825 260 762.50 323.50Q700 387 606 421Q698 456 753 520.50Q808 585 808 647Q808 660 804 678L873 678Q886 678 899.50 666.50Q913 655 913 640Q913 622 928 622Q935 622 941 630Q947 638 947 648Q947 663 937.50 673Q928 683 912.50 688Q897 693 879.50 695Q862 697 846 697L484 694Q468 694 433 694Q379 694 378 694Q291 694 219 696.50Q147 699 93 705L64 709M320 626Q320 638 320.50 651Q321 664 323 666Q324 668 329.50 668.50Q335 669 341 669Q356 669 360 667Q363 660 363 645L364 154Q364 135 368 96Q372 57 372 37Q372 24 350 24Q341 24 334.50 26.50Q328 29 327 36Q325 45 324 65.50Q323 86 322 116Q320 167 320 202L320 626M466 297Q453 297 442.50 310Q432 323 432 341Q432 368 453 388Q474 408 516 408Q560 408 598.50 382Q637 356 666 311.50Q695 267 711 213.50Q727 160 727 106Q727 82 723.50 58.50Q720 35 716 28Q714 23 706 21.50Q698 20 682 20L442 21L441 21Q405 23 397 26.50Q389 30 387 50Q380 120 380 188L379 564Q379 625 379.50 645Q380 665 381 667Q383 670 402.50 671.50Q422 673 435 673L601 673Q614 673 623 671.50Q632 670 640 663.50Q648 657 652.50 642Q657 627 657 601Q657 580 649 554.50Q641 529 627 504Q613 479 594.50 460Q576 441 554 433Q480 433 442.50 407.50Q405 382 405 342Q405 318 421 298.50Q437 279 458 279Q469 279 478.50 284Q488 289 488 297Q488 303 482 303L466 297Z"  horiz-adv-x="938" vert-adv-y="1000"  />

      
      <glyph glyph-name="uni4c" unicode="&#x4c;" d="M26-15L77-3Q103 0 125 1Q147 2 159 2L278 0L491 1Q547 1 581 0Q608-1 630.50-2.50Q653-4 665-7L668-11Q670-14 674-37Q676-55 679-65.50Q682-76 686-76L691-75L688 54Q688 77 690.50 111.50Q693 146 696.50 183.50Q700 221 704 257.50Q708 294 711 315L726 416Q726 423 721 423Q715 423 711 410Q707 397 703 372L702 369L695 331Q684 269 678.50 236.50Q673 204 671 188Q669 172 668 166Q631 124 585 97Q539 70 495.50 56.50Q452 43 417 38.50Q382 34 359 34Q348 34 348 55L345 401Q345 487 346 539Q346 581 347 616Q348 651 349 668Q356 672 368 673L451 677L558 686Q566 686 574.50 688Q583 690 583 697Q583 702 576 702L422 696Q409 695 388.50 695Q368 695 305 694Q230 693 197 693Q151 693 118 695Q92 696 65.50 699Q39 702 19 706Q14 704 14 700Q14 694 24.50 689.50Q35 685 50 681.50Q65 678 78 676.50Q91 675 96 675L99 675Q128 673 135.50 670.50Q143 668 149 658Q158 642 165 604Q172 566 175.50 518.50Q179 471 181 424Q183 377 183 334Q183 274 180.50 233.50Q178 193 172 129L171 120Q167 74 161.50 54Q156 34 140 26Q139 26 128 23Q120 22 101 18Q82 14 72 11Q34 3 26-2L26-15M328 138Q328 133 329 98Q329 70 329 59Q329 50 328 41Q328 37 328 35Q326 22 307 22Q297 22 292 26.50Q287 31 285 38L282 175L284 288L281 585Q281 611 284 640Q287 669 289 672Q290 673 296 674.50Q302 676 306 676Q319 676 323.50 673.50Q328 671 329 664L328 138Z"  horiz-adv-x="750" vert-adv-y="1000"  />

      
      <glyph glyph-name="uni4d" unicode="&#x4d;" d="M100 723Q93 723 93 716Q93 707 113 697.50Q133 688 155 683Q166 681 203 676Q221 674 232.50 672Q244 670 245 669Q248 667 250.50 650Q253 633 254.50 609Q256 585 256.50 566Q257 547 257 539Q257 489 255 434Q253 379 249 322.50Q245 266 240.50 219.50Q236 173 230 136L229 132Q225 105 218.50 78Q212 51 199 22Q186-7 165.50-27Q145-47 116-47Q108-47 96.50-42.50Q85-38 75-21L74-23Q66-34 66-48Q66-65 80.50-79.50Q95-94 122-94Q130-94 139-92Q127-114 127-134Q127-151 140-165Q153-179 171-179Q178-179 190-174L191-174Q179-168 174.50-163.50Q170-159 170-151Q170-142 179-119Q188-96 206-55Q218-26 220-21Q236 22 247 75.50Q258 129 265 184Q272 239 275 284.50Q278 330 278 361Q278 398 278.50 411.50Q279 425 282 452Q282 461 281 479Q281 486 281 486Q281 492 288 492Q292 492 294.50 488.50Q297 485 304 469Q305 466 306 465Q326 421 350.50 368.50Q375 316 399 265.50Q423 215 451 157.50Q479 100 505 47Q520 13 525.50 5Q531-3 538-3Q543-3 546.50 4Q550 11 554 21Q554 21 554 22Q557 31 567 53.50Q577 76 592 109.50Q607 143 616.50 163Q626 183 635 202Q635 202 635 203Q639 213 684 319Q701 360 725 416.50Q749 473 760.50 499.50Q772 526 784.50 554Q797 582 802 590L813 590Q814 563 814.50 504.50Q815 446 815 380L814 282Q814 246 812 146Q811 104 810 69Q809 34 808 31Q806 27 792.50 25.50Q779 24 752 22Q719 21 701 18Q683 15 683 7L685 0L809 2L937-1Q945-1 983-3Q1029-6 1065.50-7.50Q1102-9 1113-9Q1119-9 1123-6.50Q1127-4 1127 2Q1127 10 1119 12Q1113 15 1094 18Q1075 21 1064 22Q1039 25 1032.50 27Q1026 29 1022 35Q1011 50 998.50 152Q986 254 986 422Q986 444 987 500Q988 523 989 554Q990 585 991 598L991 601Q993 628 997 645.50Q1001 663 1012 668Q1020 672 1035 674Q1050 676 1105 680Q1124 682 1124 693Q1124 698 1122.50 700.50Q1121 703 1115 703L1091 700Q1037 694 997 691.50Q957 689 887 689L475 696Q395 697 329.50 698Q264 699 237 700.50Q210 702 195 703.50Q180 705 163 708L100 723M733 497Q714 453 692 401.50Q670 350 659 325Q648 300 632.50 266Q617 232 613 224Q600 247 567.50 315Q535 383 494 469.50Q453 556 427.50 612Q402 668 402 669Q402 675 409 675Q465 674 624 671Q711 669 746 668.50Q781 668 796 668Q802 668 802 662Q802 659 775 596Q754 546 733 497M973 562Q972 544 971.50 525.50Q971 507 969 470Q968 418 968 394Q968 361 969.50 321.50Q971 282 973.50 245.50Q976 209 979 173Q982 137 985 116L988 101Q993 69 995 54.50Q997 40 997 36Q997 31 994 27.50Q991 24 983 24Q959 24 952.50 31.50Q946 39 946 53L939 117Q937 149 935 190.50Q933 232 932 279Q930 352 930 407Q930 464 932.50 504.50Q935 545 940 602L941 618Q942 636 947 650Q952 664 965 664Q970 664 975.50 661Q981 658 981 648L973 562M585 230Q587 227 587 227Q592 217 595.50 209Q599 201 599 199Q599 195 590.50 180Q582 165 577 165Q573 165 570 168.50Q567 172 561 183.50Q555 195 542.50 221.50Q530 248 519 272Q509 294 507 298Q477 364 446 429Q415 494 372 581L349 629Q349 629 344 640Q337 655 334.50 660Q332 665 332 667Q332 676 344 676L375 675Q389 649 402 621.50Q415 594 440 538Q463 488 471 471L585 230Z"  horiz-adv-x="1094" vert-adv-y="1000"  />

      
      <glyph glyph-name="uni4e" unicode="&#x4e;" d="M433 15Q430 16 414 19Q403 20 394.50 22Q386 24 383 25Q377 28 375.50 45Q374 62 374 89L376 153L373 503Q373 542 375 563.50Q377 585 382 598.50Q387 612 395.50 621.50Q404 631 424 649Q437 661 468 671.50Q499 682 531 682Q593 682 636.50 647.50Q680 613 706 565Q727 525 733.50 478.50Q740 432 740 370Q740 269 717 187.50Q694 106 662 54Q657 46 650.50 33.50Q644 21 644 16Q644 12 646.50 7Q649 2 654 2L788 5Q796 5 816 3Q836 1 866-3Q885-5 899.50-6.50Q914-8 918-8Q926-8 926-1Q926 2 922 4L904 7Q867 13 850.50 15.50Q834 18 814 20Q794 22 768.50 22.50Q743 23 695 23Q691 23 687.50 25.50Q684 28 684 33L686 39L712 61Q800 140 841.50 219Q883 298 883 383Q883 483 841 547.50Q799 612 738 644Q677 676 621.50 687Q566 698 529 698Q490 698 446.50 688.50Q403 679 362 663.50Q321 648 288.50 632Q256 616 230 601Q193 579 172.50 568Q152 557 138.50 551Q125 545 116.50 543.50Q108 542 97 542Q83 542 69.50 552Q56 562 56 579Q56 588 60 593Q61 594 69 599Q79 605 79 607Q79 614 67 614Q51 614 35.50 601.50Q20 589 20 568Q20 540 37.50 529Q55 518 71 518Q81 518 97.50 521Q114 524 129 529Q135 531 140 534Q157 541 169.50 546Q182 551 187 551Q198 551 205.50 524Q213 497 216 460Q219 423 220 393Q221 363 221 339Q221 253 217 189Q213 125 201 63Q196 32 191 24.50Q186 17 177 16Q161 14 143 9Q125 4 109-2.50Q93-9 83.50-15Q74-21 74-24Q74-30 81-30L149-7Q166-2 213 0Q260 2 321 2L430 2L433 15M334 23L317 25Q314 28 314 45L318 212L318 326L313 583Q313 597 319 606.50Q325 616 333.50 620.50Q342 625 349.50 626.50Q357 628 361 628Q359 609 358 575.50Q357 542 357 501Q356 450 356 367L357 32L355 23L334 23Z"  horiz-adv-x="927" vert-adv-y="1000"  />

      
      <glyph glyph-name="uni4f" unicode="&#x4f;" d="M46 339Q46 255 76.50 188Q107 121 161 75Q215 29 285 5Q355-19 433-19Q504-19 572.50 3Q641 25 697 68.50Q753 112 786 177.50Q819 243 819 328Q819 375 803.50 436Q788 497 747.50 558Q707 619 629.50 660Q552 701 436 701Q355 701 284.50 677.50Q214 654 160 607Q106 560 76 492.50Q46 425 46 339M232 338Q232 456 257 528.50Q282 601 317 633.50Q352 666 381.50 674Q411 682 432 682Q485 682 524 650.50Q563 619 587 569.50Q611 520 622 467Q633 414 633 371Q633 288 617.50 219.50Q602 151 575.50 103Q549 55 513.50 30Q478 5 439 5Q403 5 366 26Q329 47 299 88.50Q269 130 250.50 193.50Q232 257 232 338M298 56Q254 75 227 119Q200 163 188 211.50Q176 260 172.50 297Q169 334 169 356Q169 458 202.50 525Q236 592 279 614L281 612Q264 582 253.50 559Q243 536 234 506Q225 476 219.50 434.50Q214 393 214 339Q214 261 235.50 185Q257 109 300 58L298 56M642 56Q669 88 687.50 112.50Q706 137 722.50 168.50Q739 200 749 239Q759 278 759 325Q759 385 747.50 433.50Q736 482 718 517.50Q700 553 680.50 578Q661 603 636 629L638 631Q668 623 698 594Q728 565 752 522.50Q776 480 790 430.50Q804 381 804 333Q804 290 793 246.50Q782 203 761 164.50Q740 126 710.50 97Q681 68 644 54L642 56Z"  horiz-adv-x="844" vert-adv-y="1000"  />

      
      <glyph glyph-name="uni50" unicode="&#x50;" d="M282-177Q290-169 295-152.50Q300-136 303-116Q306-96 307-77Q308-58 308-44L304 47Q304 78 305.50 102Q307 126 311 142Q393 113 477 113Q559 113 620 136Q681 159 720 198.50Q759 238 778 288.50Q797 339 797 394Q797 485 761.50 546.50Q726 608 675 641Q624 674 575 687.50Q526 701 494 701Q458 701 422.50 689Q387 677 324 645Q258 612 205.50 594Q153 576 96 576Q83 576 67.50 580Q52 584 52 597Q52 607 59 614.50Q66 622 78 630Q99 643 110 654.50Q121 666 121 684Q121 700 108 712Q95 724 81 724Q64 724 53.50 711Q43 698 43 687Q43 685 43.50 682Q44 679 46 679Q48 679 50 683L54 688Q58 696 69 696Q78 696 80.50 691Q83 686 83 681Q83 675 79.50 670.50Q76 666 60 649L59 647Q49 636 42 623Q35 610 35 594Q35 554 103 554L123 556Q128 546 131 532Q134 518 136 492Q137 476 138.50 446.50Q140 417 141.50 375Q143 333 143.50 307Q144 281 144 265Q144 235 141.50 188.50Q139 142 136 100Q133 62 126 33.50Q119 5 106-32Q98-54 96-63Q94-72 94-85L103-86Q109-70 126.50-54Q144-38 166.50-25Q189-12 210-4.50Q231 3 244 3Q266 3 279-11.50Q292-26 292-72Q292-91 287.50-116Q283-141 278-156Q274-170 274-174Q274-174 274-176Q274-177 274-177L282-177M615 428Q615 368 602.50 310.50Q590 253 560 215Q544 194 524 180Q504 166 485 159Q466 152 451.50 150Q437 148 428 148Q416 148 399.50 149Q383 150 365.50 153.50Q348 157 334 163Q320 169 315 177Q308 188 305.50 203Q303 218 302 238Q299 312 299 387Q299 413 300.50 444Q302 475 304 501.50Q306 528 309 551Q312 574 315 583Q318 590 327 603Q336 616 351.50 631Q367 646 390.50 656.50Q414 667 442 667Q471 667 501 654Q531 641 557 612.50Q583 584 599 538Q615 492 615 428M255 17Q254 17 253 17Q244 19 244 24Q244 34 246 67Q248 108 248 131Q248 208 246 362Q245 478 245 478Q245 531 253 556.50Q261 582 294 589Q290 548 288 489Q286 430 286 323L289 81Q289 65 288.50 54.50Q288 44 285 12L255 17M621 161Q637 175 654.50 194Q672 213 690 242.50Q708 272 720.50 312.50Q733 353 733 401Q733 450 722 491.50Q711 533 694 562.50Q677 592 659.50 612.50Q642 633 623 651L625 653Q660 641 689 615Q718 589 739 554.50Q760 520 771.50 479.50Q783 439 783 398Q783 357 772 317.50Q761 278 740 245Q719 212 689 189Q659 166 623 159L621 161Z"  horiz-adv-x="813" vert-adv-y="1000"  />

      
      <glyph glyph-name="uni51" unicode="&#x51;" d="M707-109Q701-105 698-105Q691-105 684.50-113.50Q678-122 678-133Q678-152 694.50-164.50Q711-177 739-177Q775-177 795.50-155Q816-133 816-106Q816-98 812-89Q811-86 811-85L825-87Q843-87 859-72Q875-57 875-30Q875-1 850.50 17Q826 35 796 35Q779 35 761 32.50Q743 30 700 22Q659 14 638 11Q617 8 596 8Q583 8 563 12Q561 12 557 13L557 15Q624 24 674 56Q724 88 755.50 133.50Q787 179 801.50 230.50Q816 282 816 333Q816 391 798 453.50Q780 516 736.50 572Q693 628 616.50 664Q540 700 430 700Q341 700 268.50 673Q196 646 146 597.50Q96 549 70 485Q44 421 44 348Q44 255 85 175.50Q126 96 195 51Q234 26 300.50 5Q367-16 471-16L586-13Q615-13 645-15Q675-17 709-25.50Q743-34 766.50-53Q790-72 790-103Q790-127 772-143.50Q754-160 734-160Q720-160 709-152.50Q698-145 698-133Q698-121 707-115L707-109M229 345Q229 395 238 451.50Q247 508 270 561Q293 614 332.50 648Q372 682 430 682Q480 682 517 656Q554 630 578 584Q602 538 613.50 480Q625 422 625 357Q625 287 611 224Q597 161 571 112.50Q545 64 510 37Q475 10 435 10Q391 10 353.50 35Q316 60 288 105Q260 150 244.50 211.50Q229 273 229 345M635 55Q692 111 723.50 184Q755 257 755 335Q755 367 748.50 405.50Q742 444 727.50 485.50Q713 527 688 567.50Q663 608 628 640L630 642Q671 625 703.50 590.50Q736 556 757.50 512Q779 468 789.50 421.50Q800 375 800 332Q800 284 787.50 239Q775 194 752.50 156.50Q730 119 700 92.50Q670 66 637 53L635 55M292 68L290 69Q266 79 248 94Q230 109 211 148Q183 202 173 267Q170 289 169 308.50Q168 328 168 346Q168 409 176.50 453Q185 497 199.50 525Q214 553 229 569Q244 585 268 604L271 606L273 604Q246 554 228 494.50Q210 435 210 342Q210 247 235 177Q260 107 294 70L292 68Z"  horiz-adv-x="844" vert-adv-y="1000"  />

      
      <glyph glyph-name="uni52" unicode="&#x52;" d="M845-81Q834-89 822-89Q792-89 766-63.50Q740-38 740-5Q740 21 759 74Q770 104 775.50 126Q781 148 781 172Q781 199 773 227Q765 255 747.50 280.50Q730 306 701.50 325Q673 344 633 351L633 353Q675 370 702.50 390Q730 410 743.50 430Q757 450 762 467.50Q767 485 767 501Q767 541 747.50 575.50Q728 610 694.50 634.50Q661 659 618.50 672.50Q576 686 531 686Q509 686 490 683.50Q471 681 445.50 673.50Q420 666 382 650.50Q344 635 288 608L284 606Q240 586 212 576.50Q184 567 150 567Q124 567 104.50 579Q85 591 85 612Q85 626 93 634.50Q101 643 107 646L109 646Q130 652 142.50 660.50Q155 669 155 691Q155 706 145 716Q135 726 119 726Q106 726 100.50 720Q95 714 92 707L92 706L94 700L96 701Q104 708 106.50 709Q109 710 114 710Q120 710 123.50 704.50Q127 699 127 694Q127 686 121.50 679.50Q116 673 101 662Q82 649 76 633.50Q70 618 70 608Q70 603 72 594.50Q74 586 82 575Q90 564 108 556Q126 548 155 548L204 550L205 547Q209 532 211.50 520.50Q214 509 215 487L216 366Q216 344 215 290.50Q214 237 213.50 207Q213 177 212 139Q211 101 209 88Q203 35 198 24.50Q193 14 174 12L174 12Q139 8 120 4.50Q101 1 93-2Q85-5 83-8Q81-11 81-18Q111-14 166-9.50Q221-5 271-5L499-10Q510-10 519-9Q561-8 576.50-7Q592-6 601-3Q609-1 609 5Q609 12 598 12L525 10Q473 10 447 12Q421 14 408.50 19.50Q396 25 392.50 34Q389 43 386 64Q381 99 379.50 149Q378 199 378 273L377 425Q377 542 399 589Q421 632 450.50 647.50Q480 663 505 663Q559 663 593 613.50Q627 564 627 492Q627 442 611.50 406Q596 370 574 370Q562 370 538 373Q514 377 501 377Q477 377 458.50 362Q440 347 440 325Q440 313 446.50 305.50Q453 298 461 298Q473 298 473 309Q473 317 469 325L464 337Q464 342 474 349.50Q484 357 500 357Q553 357 590 310Q627 263 641 198Q643 191 645.50 175.50Q648 160 656 118Q658 103 662 80Q666 57 667 52Q678 0 700-33Q722-66 746.50-82Q771-98 790-102.50Q809-107 820-107Q835-107 848-97Q861-87 861-80Q861-74 856-74L845-81M327 501L328 519Q329 538 330 560Q331 582 333 588Q336 601 352 608Q368 615 376 615Q386 615 386 608L377 585Q366 550 362.50 514.50Q359 479 359 434L360 243Q360 236 360 210Q359 191 359 183Q359 141 362.50 104Q366 67 376 17Q371 15 366.50 15Q362 15 347 15Q341 15 337.50 20.50Q334 26 331 43Q329 51 328.50 75Q328 99 327 148L326 170L327 501Z"  horiz-adv-x="823" vert-adv-y="1000"  />

      
      <glyph glyph-name="uni53" unicode="&#x53;" d="M725 715Q731 710 733.50 703Q736 696 736 691Q736 670 716 652.50Q696 635 666 635Q639 635 611 642.50Q583 650 516 672Q513 673 497 678Q481 683 460.50 688Q440 693 416.50 696.50Q393 700 372 700Q336 700 294 688.50Q252 677 214 652Q176 627 151.50 586.50Q127 546 127 491Q127 466 129.50 453Q132 440 142 411Q143 408 143 406Q145 403 148 378.50Q151 354 151 322Q151 286 148 247.50Q145 209 140.50 171Q136 133 131.50 106Q127 79 123 55Q113-6 100-45.50Q87-85 66-136L64-141L63-143Q57-155 54-161.50Q51-168 51-171Q51-178 58-178Q61-178 67-168Q81-140 87-127Q93-114 99-97Q105-80 111-59.50Q117-39 130 6Q130 6 133 18Q138 38 143.50 61Q149 84 152 91Q159 87 171.50 77Q184 67 223 35Q252 11 297.50 0Q343-11 389-11Q466-11 526.50 13.50Q587 38 626.50 78.50Q666 119 686 168Q706 217 706 266Q706 302 698 329.50Q690 357 678 376Q666 395 654 406.50Q642 418 626 430L626 430L611 504Q606 540 604.50 559.50Q603 579 603 593Q603 597 603 607Q604 614 604 618Q625 601 646 589Q667 577 688 577Q693 577 699.50 578Q706 579 714 583.50Q722 588 727.50 596.50Q733 605 733 619Q733 631 726 643Q755 662 755 690Q755 703 746 713.50Q737 724 728 724Q720 724 720 720L725 715M683 272Q670 316 646.50 342.50Q623 369 588 382.50Q553 396 510 401.50Q467 407 387 413Q282 421 241.50 442Q201 463 201 515L203 515Q220 480 271.50 468.50Q323 457 459 448Q538 442 583 428Q628 414 655 376Q674 349 679.50 324.50Q685 300 685 272L683 272M170 366Q213 325 270 312Q327 299 419 294Q461 292 491.50 288Q522 284 551.50 273Q581 262 599 239.50Q617 217 617 181Q617 154 604.50 124Q592 94 567 68.50Q542 43 505 27Q468 11 421 11Q339 11 286.50 55Q234 99 209 158Q184 217 175.50 264Q167 311 167 325Q167 337 169 360Q170 363 170 366M604 441Q562 455 528.50 459.50Q495 464 425 469L418 469Q361 473 326.50 477Q292 481 264 490.50Q236 500 220.50 519Q205 538 205 569Q205 587 212.50 606.50Q220 626 236.50 643Q253 660 281.50 671Q310 682 349 682Q396 682 440 662Q484 642 519 607.50Q554 573 576.50 529.50Q599 486 604 441Z"  horiz-adv-x="740" vert-adv-y="1000"  />

      
      <glyph glyph-name="uni54" unicode="&#x54;" d="M518 254Q518 365 519 436Q519 492 520.50 541.50Q522 591 524 624Q525 640 527 646Q529 652 535 660Q552 660 574 656Q596 652 622.50 640Q649 628 676.50 603.50Q704 579 726 540Q729 534 744 504Q756 481 764.50 463.50Q773 446 777 440Q781 440 788 442Q777 480 773.50 491.50Q770 503 768 513Q766 523 765.50 531Q765 539 765 554Q765 562 766 577.50Q767 593 768 610Q770 646 772 667L772 668Q773 679 777 688.50Q781 698 792 701L793 701Q809 706 809 711Q809 715 803 719.50Q797 724 792 724Q782 724 777.50 719.50Q773 715 767 704L765 701Q762 694 758 692.50Q754 691 738 691L172 691L169 691Q121 693 109 695Q97 697 90 708Q88 711 88 711Q81 721 78.50 723Q76 725 72 725Q63 725 63 717Q63 714 70 701Q74 692 74 691Q80 674 81.50 658.50Q83 643 83 617Q83 581 80 556.50Q77 532 64 482Q55 450 55 436Q55 427 62 427Q66 427 70.50 436.50Q75 446 76 452Q83 475 91.50 502Q100 529 104 537Q119 567 151.50 590Q184 613 221 627.50Q258 642 289 649Q320 656 330 656Q345 656 349 644.50Q353 633 353 609L353 308Q353 255 352.50 217.50Q352 180 350.50 141.50Q349 103 344.50 70Q340 37 333 16L245 1Q191-14 165.50-35Q140-56 140-70Q140-76 145.50-82Q151-88 159-88Q165-88 170-84Q175-80 175-75L170-63Q170-55 192.50-43Q215-31 245-22Q275-12 316.50-6Q358 0 435 0Q474 0 526-2.50Q578-5 611-11L730-31Q737-31 737-25Q737-22 721.50-16.50Q706-11 681.50-5Q657 1 572 18Q531 26 530 27Q526 30 523.50 49.50Q521 69 520 100Q518 136 518 188L518 254M465 553L467 658Q468 663 470.50 664Q473 665 484 665Q492 665 499 663.50Q506 662 510 657Q506 630 504 575.50Q502 521 500 452Q499 367 499 224Q499 153 501.50 112Q504 71 507 44Q508 33 508 29Q508 26 504.50 25Q501 24 497 24Q481 24 477 27Q473 30 471 41Q469 56 467.50 84.50Q466 113 465 147Q464 198 464 259L465 553Z"  horiz-adv-x="781" vert-adv-y="1000"  />

      
      <glyph glyph-name="uni55" unicode="&#x55;" d="M120 717Q112 717 112 711Q112 709 118.50 702.50Q125 696 136 691Q170 678 220.50 672Q271 666 324 664L324 662Q271 625 230.50 591Q190 557 153.50 509.50Q117 462 94.50 399.50Q72 337 72 259Q72 189 103.50 136.50Q135 84 187 51.50Q239 19 301.50 3.50Q364-12 427-12Q478-12 518.50-1.50Q559 9 615 31L627-86Q631-119 659-148.50Q687-178 728-178Q751-178 765-164.50Q779-151 779-133Q779-120 774-113Q769-106 761-100L743-105L744-106Q756-116 756-127Q756-138 745.50-143.50Q735-149 723-149Q701-149 680.50-130.50Q660-112 652-88Q645-66 640-22Q635 22 635 52L642 282Q644 417 645.50 485.50Q647 554 648.50 591Q650 628 652.50 642.50Q655 657 660 661Q664 664 676.50 667Q689 670 716 675Q743 680 756.50 683Q770 686 776 689Q776 690 776 692Q777 694 777 694Q777 702 770 702L734 696Q690 688 652 684Q614 680 574 680L363 683Q293 683 238.50 689Q184 695 135 713L120 717M245 333Q245 436 275.50 522Q306 608 362 666Q449 662 477 661Q505 660 528 659.50Q551 659 559 659Q564 659 578 659Q597 660 601 660Q603 660 611 659Q617 659 619 659Q620 648 620.50 609Q621 570 621 433L621 317Q621 268 619 232.50Q617 197 613 173Q607 139 595 112Q574 66 536 38Q498 10 453 10Q416 10 379.50 32Q343 54 312 96.50Q281 139 263 199Q245 259 245 333M311 66Q273 84 247.50 116Q222 148 207.50 185.50Q193 223 187.50 258.50Q182 294 182 324Q182 342 184.50 367.50Q187 393 195.50 425.50Q204 458 222 490.50Q240 523 268 546L270 544Q254 511 240.50 459Q227 407 227 325Q227 269 235.50 225Q244 181 257.50 151.50Q271 122 284.50 103.50Q298 85 313 68L311 66Z"  horiz-adv-x="750" vert-adv-y="1000"  />

      
      <glyph glyph-name="uni56" unicode="&#x56;" d="M585 681Q506 681 444.50 681.50Q383 682 319.50 684.50Q256 687 195 692Q134 697 92 706L79 710Q73 710 73 702Q73 697 76.50 694Q80 691 88 688L90 687Q102 684 125 678Q148 672 154 669Q159 667 171.50 644.50Q184 622 199 591.50Q214 561 228.50 529.50Q243 498 261 457L274 428L384 160Q412 94 427 59.50Q442 25 450 10.50Q458-4 462-7.50Q466-11 472-11Q477-11 481-9.50Q485-8 493-2Q501 4 515 18.50Q529 33 552 58Q596 106 642.50 175Q689 244 729 318Q769 392 792.50 455.50Q816 519 816 557Q816 573 812 591.50Q808 610 797 626Q787 640 784.50 644Q782 648 782 650Q782 656 787.50 658Q793 660 820 665Q828 666 828 666Q872 673 882.50 676.50Q893 680 893 686Q893 694 882 694Q868 694 846 691Q827 688 798.50 686Q770 684 736 683Q702 682 685 681.50Q668 681 661 681L585 681M508 659Q580 659 598.50 658.50Q617 658 634 654Q660 649 679.50 633.50Q699 618 710.50 596.50Q722 575 727.50 552Q733 529 733 508Q733 420 694 313.50Q655 207 585 127L581 127Q561 161 526.50 238.50Q492 316 454 409Q416 502 390.50 570Q365 638 365 646Q365 653 375 657Q381 659 400 659.50Q419 660 439 660L508 659M566 104Q559 93 551.50 83Q544 73 541 73Q538 73 532.50 83Q527 93 518 111.50Q509 130 505 139.50Q501 149 489 178Q485 187 483 191L452 266Q446 281 430.50 318.50Q415 356 404 381Q393 406 381 433.50Q369 461 353 499Q346 516 338.50 536Q331 556 321.50 581Q312 606 306 624Q300 642 300 646Q300 655 309.50 657.50Q319 660 329 660Q339 660 353 617Q405 481 459.50 349Q514 217 566 104Z"  horiz-adv-x="854" vert-adv-y="1000"  />

      
      <glyph glyph-name="uni57" unicode="&#x57;" d="M994 702Q968 696 931 692.50Q894 689 868 689Q834 689 763 688.50Q692 688 604 687Q479 685 469 685Q326 685 257 689Q188 693 155 706Q155 706 150 708Q138 714 135 714Q130 714 130 709Q130 694 177 679.50Q224 665 287 665Q292 665 301 666Q310 666 315 666Q307 653 299 645Q291 637 267 617Q157 525 115 440Q73 355 73 268Q73 203 96 142Q119 81 166 44Q189 26 217 14Q245 2 272.50-4Q300-10 325-12Q350-14 372-14Q426-14 472-2Q518 10 560 41Q605 13 658.50-1.50Q712-16 768-16Q805-16 841.50-9Q878-2 901 8L906 5Q908 1 908.50-13.50Q909-28 911-58L911-71Q913-129 927.50-153.50Q942-178 980-178Q1009-178 1021-164Q1033-150 1033-138L1028-126L1023-123Q1019-138 1005.50-145Q992-152 985-152Q966-152 955-140Q944-128 938.50-110Q933-92 932-76.50Q931-61 931-45L931 249L926 642L928 663Q933 669 937.50 671Q942 673 955 675Q982 679 1002.50 688.50Q1023 698 1023 706Q1023 713 1017 713L994 702M425 668L601 666Q660 666 680 662L680 655Q667 649 647 633.50Q627 618 606.50 598Q586 578 567.50 558Q549 538 539 525Q509 489 482 425Q455 361 455 270Q455 228 463.50 192Q472 156 484 130Q496 104 508 87.50Q520 71 528 64L528 63Q519 42 501.50 25.50Q484 9 445 9Q403 9 366 30Q329 51 300.50 90.50Q272 130 256 187Q240 244 240 314Q240 367 248.50 422.50Q257 478 271 527Q285 576 303 612Q321 648 339 666L425 668M316 45Q287 52 262 75Q237 98 217.50 131.50Q198 165 187.50 206.50Q177 248 177 291Q177 321 179.50 352.50Q182 384 190 417Q198 450 213.50 480Q229 510 254 531L256 529Q244 492 234.50 431Q225 370 225 315Q225 284 228 251.50Q231 219 240 183Q249 147 268.50 111Q288 75 318 47L316 45M687 57Q651 68 625.50 100.50Q600 133 586 174Q572 215 566 253.50Q560 292 560 321Q560 341 563.50 369.50Q567 398 574 428Q581 458 593 484.50Q605 511 622 526Q622 521 620 509.50Q618 498 615 480Q610 456 610 452Q605 405 605 351Q605 310 610 268.50Q615 227 625.50 187Q636 147 652 113.50Q668 80 689 59L687 57M873 667Q893 667 897 663.50Q901 660 904 638Q907 613 908.50 588.50Q910 564 911 523Q912 464 912 203Q912 201 912 193Q913 174 913 169Q913 128 911 91Q909 54 905 45Q899 31 867 21Q835 11 808 11Q791 11 775.50 13.50Q760 16 741 27Q722 38 702 63Q682 88 664 129Q641 180 631.50 236.50Q622 293 622 350Q622 435 636.50 505Q651 575 690 631Q709 659 717.50 665Q726 671 748 671L873 667Z"  horiz-adv-x="1010" vert-adv-y="1000"  />

      
      <glyph glyph-name="uni58" unicode="&#x58;" d="M123 674Q133 672 152 653Q171 634 194.50 605.50Q218 577 240 548.50Q262 520 278 498Q280 495 282 492Q286 487 297.50 470.50Q309 454 323 433Q334 418 344.50 403Q355 388 359 382L357 381Q288 354 245 333.50Q202 313 163 281.50Q124 250 100.50 203.50Q77 157 77 93Q77 74 79 58.50Q81 43 91-5Q80-11 80-17Q80-25 88-25Q91-25 120-18Q155-9 176-5Q185-3 248.50-2Q312-1 401-1Q509 0 644 0L750 0Q761 0 786-1Q837-2 852-3Q858 2 858 6Q858 11 851.50 13.50Q845 16 840 16Q829 17 820 20Q811 23 806 29Q801 35 777 68.50Q753 102 735 127Q717 152 701.50 174Q686 196 658 235Q598 318 587 333L532 414L547 418Q578 426 602 432Q626 438 638 442Q650 446 660.50 450.50Q671 455 690 464Q745 491 783 527.50Q821 564 821 613Q821 634 816 645Q811 656 804 664Q800 669 800 671Q800 674 803.50 675Q807 676 810 676Q822 676 832.50 682.50Q843 689 843 696Q843 702 837 702Q836 702 828 699Q818 695 816 695Q810 694 767.50 692.50Q725 691 658 689.50Q591 688 547.50 687.50Q504 687 493 687L170 693L67 697Q61 697 57.50 695Q54 693 54 688Q54 683 61 681L62 681L123 674M227 16Q222 25 218 40.50Q214 56 211.50 73.50Q209 91 207.50 106Q206 121 206 127Q206 142 210 168Q214 194 230 230.50Q246 267 281 302Q316 337 373 357Q401 326 437 275.50Q473 225 505.50 172Q538 119 559 79.50Q580 40 580 29Q580 22 566.50 20.50Q553 19 493 19Q414 19 353.50 18.50Q293 18 227 16M786 24Q786 20 782 19Q778 18 773 18Q746 18 737.50 23Q729 28 712 56Q711 57 657 134Q603 211 526.50 320.50Q450 430 389.50 515Q329 600 307 629Q305 632 299 641Q291 653 287.50 658Q284 663 284 665Q284 668 288 670.50Q292 673 296 673L326 671Q328 668 335.50 658.50Q343 649 351 639Q362 625 368 617.50Q374 610 376 606Q386 593 409 560Q432 527 458 490L552 354L568 331Q574 323 604 281Q634 239 643 227Q679 176 720 119.50Q761 63 773 45.50Q785 28 786 26L786 24M672 590Q672 553 646 517Q620 481 585 459L585 459Q562 448 554.50 444.50Q547 441 538 437.50Q529 434 526 434Q522 434 517.50 437Q513 440 505 451Q491 472 448 532Q423 567 411 584.50Q399 602 388 619Q360 659 360 663Q360 670 374 670Q388 670 418 670Q502 671 548 671Q568 671 587 668.50Q606 666 626 658Q646 650 659 633.50Q672 617 672 590Z"  horiz-adv-x="854" vert-adv-y="1000"  />

      
      <glyph glyph-name="uni59" unicode="&#x59;" d="M555-49Q558-42 558-33Q558-18 551-8Q544 2 534 8Q524 14 513.50 16.50Q503 19 496 19Q473 19 454.50 4Q436-11 436-21Q436-26 439-26L455-25Q460-25 470.50-32.50Q481-40 481-53Q481-72 470-90Q459-108 439-123Q419-138 393-147Q367-156 338-156Q323-156 305.50-151Q288-146 271.50-134.50Q255-123 245-105.50Q235-88 235-63Q235-18 264.50 11.50Q294 41 373 89Q409 111 450 139.50Q491 168 530.50 199.50Q570 231 608 266Q646 301 676 335Q707 370 728 405.50Q749 441 761 473.50Q773 506 777.50 531.50Q782 557 782 574Q782 596 777.50 610.50Q773 625 765 638Q758 650 758 656Q758 666 771.50 671Q785 676 816 682Q840 688 840 699Q840 708 832 708Q829 708 823 705L822 704Q812 698 789 698Q739 697 677 696.50Q615 696 549 696Q503 696 440 696Q357 697 336 697L325 697Q288 698 239.50 698.50Q191 699 168 700Q145 701 119.50 703Q94 705 61 709Q57 703 57 700L58 698Q58 697 58 696L60 695Q70 691 77 689Q84 687 104 681Q123 676 129.50 673Q136 670 141 661Q145 654 152 637.50Q159 621 178 575Q182 565 188 550Q193 538 219 474Q247 404 268 352Q289 300 309 247.50Q329 195 340 163.50Q351 132 351 124Q351 114 341.50 106Q332 98 323 92L322 91Q295 75 276 61.50Q257 48 241 30Q225 12 215-11Q205-34 205-63Q205-118 244-149Q283-180 340-180Q378-180 413-169Q448-158 490-137L492-136Q534-116 562.50-106.50Q591-97 625-97Q660-97 683.50-113.50Q707-130 707-152Q707-159 701-166Q701-167 700-168Q700-169 699-171Q699-172 699-173Q699-178 705-178Q716-178 732.50-160.50Q749-143 749-111Q749-88 739.50-71Q730-54 715-43Q700-32 683-27.50Q666-23 649-23Q627-23 605-31L555-49M484 207Q484 201 475 193.50Q466 186 462 186Q456 186 447 199Q438 212 428 233Q418 254 409.50 274Q401 294 392 317Q390 320 389 324L388 327Q350 426 334.50 465.50Q319 505 302 551Q285 597 275 628Q265 659 265 669Q265 675 273 677.50Q281 680 290 680Q309 680 316 652Q348 541 386 437.50Q424 334 474 229L484 207M331 667Q331 678 341 678L344 678Q468 676 528 676Q570 675 597.50 631.50Q625 588 625 521Q625 442 609.50 395Q594 348 567 306Q547 276 526.50 253Q506 230 502 230Q498 230 493.50 237.50Q489 245 478 270Q443 346 413 419.50Q383 493 359 573Q353 591 348 609Q339 635 335 649Q331 663 331 667Z"  horiz-adv-x="813" vert-adv-y="1000"  />

      
      <glyph glyph-name="uni5a" unicode="&#x5a;" d="M636 270Q610 204 583 168Q556 132 525 112Q488 88 448 70.50Q408 53 373.50 43Q339 33 316.50 28.50Q294 24 290 24Q275 24 269.50 27Q264 30 264 38Q264 46 280 82.50Q296 119 319 167Q342 215 362.50 255Q383 295 390 309Q395 318 408.50 342.50Q422 367 455 426Q485 482 521.50 548.50Q558 615 572.50 642Q587 669 587 671Q587 676 582 677Q577 678 555 678Q537 678 499 679Q461 680 381 682Q208 687 187 687L95 685Q81 685 68 689L67 689L63 722Q62 722 59 723Q57 724 56 724Q55 724 53 723Q51 722 49 722Q53 703 54 674.50Q55 646 55 628Q55 608 53.50 580.50Q52 553 49 524L36 417Q37 417 40 416Q42 416 42 416Q45 416 49 418Q49 418 49 418L66 536Q71 551 106.50 572.50Q142 594 198 615Q254 636 322 649.50Q390 663 456 663Q479 663 504 661Q521 660 532.50 657.50Q544 655 544 652Q544 651 537.50 641.50Q531 632 523 620.50Q515 609 505 595.50Q495 582 488 572Q441 514 383 441.50Q325 369 261 288.50Q197 208 152 150Q107 92 87 65Q67 39 59.50 26Q52 13 52 2L107 1Q110 1 141.50 0.50Q173 0 219-1Q239-2 285-3Q331-4 355-4Q431-6 450-6Q490-6 507.50-7.50Q525-9 540-12L545-13Q547-26 547-42Q547-58 544-89Q543-103 543-110Q545-112 549-112Q550-112 552-112Q554-111 556-111L556-110Q560-62 564.50-25Q569 12 578 55.50Q587 99 604 151.50Q621 204 647 266L636 270Z"  horiz-adv-x="646" vert-adv-y="1000"  />

      
      <glyph glyph-name="uni5b" unicode="&#x5b;" d="M226-161Q243-161 243-152Q243-145 230-145Q179-145 141-141L141 703Q180 706 222 706Q243 706 243 713Q243 722 226 722L56 722L56-161L226-161Z"  horiz-adv-x="254" vert-adv-y="1000"  />

      
      <glyph glyph-name="uni5c" unicode="&#x5c;" d="M88 735L44 735L231-183L274-183L88 735Z"  horiz-adv-x="292" vert-adv-y="1000"  />

      
      <glyph glyph-name="uni5d" unicode="&#x5d;" d="M42 722Q26 722 26 713Q26 706 39 706Q90 706 128 703L128-141Q93-145 47-145Q26-145 26-152Q26-161 42-161L213-161L213 722L42 722Z"  horiz-adv-x="255" vert-adv-y="1000"  />

      
      <glyph glyph-name="uni5e" unicode="&#x5e;" d="M189 325L331 575L475 325L553 325L355 676L315 676L115 325L189 325Z"  horiz-adv-x="667" vert-adv-y="1000"  />

      
      <glyph glyph-name="uni5f" unicode="&#x5f;" d="M-10-75L-10-125L510-125L510-75L-10-75Z"  horiz-adv-x="500" vert-adv-y="1000"  />

      
      <glyph glyph-name="uni60" unicode="&#x60;" d="M266 606Q266 611 256 629Q246 647 232 669Q218 691 205 709.50Q192 728 188 732Q182 739 177 740Q172 741 153 741L33 741Q28 741 28 735Q28 731 33.50 727Q39 723 46 720Q50 719 67 708.50Q84 698 112 680Q140 662 156 651.50Q172 641 187 631L200 623Q229 605 237 600.50Q245 596 251 596Q255 596 260.50 598Q266 600 266 606M67 724L67 726L99 726Q113 726 130 720.50Q147 715 153 707Q155 704 162.50 697Q170 690 191 671Q215 649 228.50 636Q242 623 242 621Q242 617 239 617L67 724Z"  horiz-adv-x="333" vert-adv-y="1000"  />

      
      <glyph glyph-name="uni61" unicode="&#x61;" d="M236 271Q236 259 225.50 255Q215 251 181 251Q118 251 90 276Q62 301 62 357Q62 369 65 391Q68 413 74 434.50Q80 456 90 471.50Q100 487 113 487Q171 487 203.50 462.50Q236 438 236 395L236 271M236 96Q236 62 203 62Q181 62 157.50 82.50Q134 103 134 127L134 215Q134 237 168 237L223 237Q236 237 236 219L236 96M324 465Q324 472 328 484Q332 493 332 498Q332 505 250 534Q247 535 232 541Q191 556 165.50 564Q140 572 126 572Q116 572 102.50 549Q89 526 75.50 490Q62 454 53.50 417Q45 380 45 354Q45 270 113 243Q83 227 67 220Q65 219 62 217Q46 210 44 206Q46 190 46 143Q46 98 36 65Q36 63 50.50 50.50Q65 38 85 22.50Q105 7 120.50-4Q136-15 139-15Q143-15 152-8.50Q161-2 176 10Q197 26 209.50 34.50Q222 43 229 43L229-4Q229-17 238-17Q242-17 252.50-11.50Q263-6 282 6Q307 21 317 26Q370 55 370 70Q370 75 367 75Q365 75 358 71Q342 62 334 62Q330 62 327 67Q324 72 324 78L324 465Z"  horiz-adv-x="375" vert-adv-y="1000"  />

      
      <glyph glyph-name="uni62" unicode="&#x62;" d="M250 104Q250 70 229 70Q189 70 167.50 107Q146 144 146 212L146 442Q146 474 167 474Q175 474 189 469.50Q203 465 217 456Q231 447 240.50 434Q250 421 250 405L250 104M89 688Q86 685 83 685Q81 685 74 694Q66 702 64 702Q58 702 58 695L58 507Q58 498 49 489Q42 483 42 478Q42 474 48 466Q49 465 49 465Q58 455 58 442L58 106Q58 96 55.50 91Q53 86 48 82Q42 76 42 71Q42 64 49.50 58.50Q57 53 89 35L94 32L107 25Q135 8 156.50-2.50Q178-13 180-13Q183-13 215 4Q252 22 274 33L316 52Q331 59 334.50 67Q338 75 338 100L338 475Q338 482 322 494.50Q306 507 284 521Q262 535 243.50 545Q225 555 222 555Q220 555 200 535Q183 517 171.50 507Q160 497 154 497Q146 497 146 510L146 725Q146 739 141 739Q137 739 132 734L89 688Z"  horiz-adv-x="375" vert-adv-y="1000"  />

      
      <glyph glyph-name="uni63" unicode="&#x63;" d="M152 473Q152 478 156.50 483.50Q161 489 168 489Q172 489 185 486.50Q198 484 221 479Q252 472 259.50 470.50Q267 469 271 469Q276 469 284.50 481.50Q293 494 301.50 509.50Q310 525 316.50 540Q323 555 323 557Q323 560 319 563.50Q315 567 312 567Q310 567 306 565Q302 564 299 563L287 559Q278 556 272 556L203 566Q197 567 189 567Q187 567 176 560.50Q165 554 139 537Q118 523 101 512.50Q84 502 73 495Q69 492 66.50 485Q64 478 64 462L64 103Q64 89 61.50 83.50Q59 78 55 74Q51 71 51 66Q51 64 66 52.50Q81 41 103.50 25.50Q126 10 143-1Q160-12 162-12Q167-12 190-2Q213 8 240.50 21Q268 34 287.50 45Q307 56 307 59Q307 69 300 69Q297 69 287 67Q264 62 244 62Q205 62 178.50 83.50Q152 105 152 126L152 473Z"  horiz-adv-x="323" vert-adv-y="1000"  />

      
      <glyph glyph-name="uni64" unicode="&#x64;" d="M337 735Q337 741 332 741Q328 741 324 738.50Q320 736 311 727Q281 699 272 699Q265 699 237 706Q224 709 213 710.50Q202 712 196 712Q185 712 176 709.50Q167 707 167 704Q167 702 172 702Q205 702 227 693.50Q249 685 249 673L249 558Q249 553 247 553Q245 553 241.50 555Q238 557 230 563Q229 564 228 564Q224 567 221 567Q220 567 213 563Q208 561 202 558L74 496Q71 495 69 494Q56 488 56 483L56 95Q56 86 44 73Q38 68 38 66Q38 63 52 51Q66 39 87.50 23Q109 7 125-3.50Q141-14 144-14Q150-14 163-6.50Q176 1 194 14Q212 26 222.50 32.50Q233 39 237 39Q241 39 242 36Q243 33 243 22L243-17Q243-30 249-30Q255-30 277-16.50Q299-3 323.50 15Q348 33 366.50 49.50Q385 66 385 71Q385 76 380 76Q378 76 365 69Q352 62 349 62Q344 62 340.50 68.50Q337 75 337 84L337 735M144 475Q144 485 150 492.50Q156 500 163 500Q170 500 184 493Q198 486 213 475Q228 464 238.50 454Q249 444 249 438L249 93Q249 59 228 59Q221 59 207 68Q193 77 178.50 89.50Q164 102 154 115Q144 128 144 136L144 475Z"  horiz-adv-x="385" vert-adv-y="1000"  />

      
      <glyph glyph-name="uni65" unicode="&#x65;" d="M154 238Q184 286 242 372Q300 458 327 500Q333 511 333 513Q333 519 325 519Q322 519 315 512Q306 501 299 501Q296 501 288 507Q280 513 262 527Q239 546 224.50 556Q210 566 203 566Q200 566 187.50 559.50Q175 553 159 543Q138 531 130 527Q119 521 101 513Q66 497 66 488L66 103Q66 92 59 79Q55 72 55 69Q55 64 68.50 55.50Q82 47 128 23L201-15Q268 21 299.50 40.50Q331 60 331 67Q331 73 327 73Q323 73 314 70Q296 64 283 64Q276 64 260 67.50Q244 71 226.50 77Q209 83 193.50 91Q178 99 170 107Q154 125 154 186L154 238M154 391Q154 460 156.50 479.50Q159 499 166 499Q169 499 180 486Q191 473 205 454Q219 435 228.50 419Q238 403 238 399Q238 392 222.50 367.50Q207 343 174 294L156 267L154 267L154 391Z"  horiz-adv-x="333" vert-adv-y="1000"  />

      
      <glyph glyph-name="uni66" unicode="&#x66;" d="M69-57L84-57Q87-57 89-55Q98-49 115-43Q132-37 142-35Q152-34 154.50-31.50Q157-29 157-19L157 452Q157 468 159.50 473.50Q162 479 170 479Q173 479 185 478Q197 477 200 477Q210 477 213.50 487Q217 497 217 532Q217 539 214 541Q211 543 199 543Q169 543 163 546Q157 549 157 567L157 658Q157 680 174 680Q182 680 205 670Q228 660 257 646Q278 636 284 633Q290 630 292 630Q296 630 302.50 638Q309 646 316 658Q323 670 327.50 682.50Q332 695 332 703Q332 710 321 714Q319 715 318 715Q288 725 264.50 731.50Q241 738 226 738Q215 738 203.50 733.50Q192 729 173 717Q155 706 143.50 700.50Q132 695 109 685Q87 676 78 669Q69 662 69 655L69 564Q68 555 65.50 551.50Q63 548 53 540Q36 526 36 512L36 488Q36 479 47 479Q59 479 64 476Q69 473 69 460L69-57Z"  horiz-adv-x="218" vert-adv-y="1000"  />

      
      <glyph glyph-name="uni67" unicode="&#x67;" d="M149 463Q149 489 163 489Q170 489 195 483Q220 477 273 463Q327 449 348 444Q369 439 374 439Q381 439 387 448Q393 457 397 469Q401 481 403 491.50Q405 502 405 504Q405 512 396.50 517Q388 522 367 526Q341 531 311 538.50Q281 546 244 557Q241 558 235 560Q208 567 205 567Q204 567 195 562Q186 557 174 549Q151 536 140 530Q115 515 91 504Q69 494 65 489Q61 484 61 471L61 134Q61 131 56 123Q50 115 50 112Q50 105 74.50 86Q99 67 126 53Q155 38 155 30Q155 26 141 9Q127-8 91-48Q90-50 86-54Q50-95 24-128.50Q-2-162-2-164Q-2-170 7-170Q9-170 29-149Q49-128 61-117Q73-106 80-106Q89-106 107.50-116Q126-126 157-146Q185-162 200-170.50Q215-179 221-179Q229-179 245-170Q261-161 286-145Q298-137 301-135Q303-134 322-123Q358-101 369-94.50Q380-88 381-86Q387-80 391-58.50Q395-37 395-10Q395 29 389 64.50Q383 100 366 167Q350 228 344.50 262.50Q339 297 339 332Q339 355 341.50 371.50Q344 388 349 404Q350 406 351 409Q352 414 352 416Q352 421 347 421Q331 421 315 410.50Q299 400 286 381Q259 342 259 292Q259 266 262 237.50Q265 209 270 175Q275 143 275 137Q275 113 244 113Q207 113 178 132Q149 151 149 175L149 463M152-8Q194 37 232 69Q270 101 279 101Q284 101 288 88.50Q292 76 295.50 53.50Q299 31 300.50 5.50Q302-20 302-41Q302-112 282-112Q272-112 229-87Q186-62 137-24L152-8Z"  horiz-adv-x="417" vert-adv-y="1000"  />

      
      <glyph glyph-name="uni68" unicode="&#x68;" d="M53-1L141 8L141 482Q141 488 147.50 493Q154 498 162 498Q167 498 180.50 494.50Q194 491 209 484.50Q224 478 235 467.50Q246 457 246 444L246 78Q246 72 243 41Q241 11 241 7Q241-4 245-4Q247-4 250-1Q252 0 253 1Q292 25 361 55L363 56Q372 59 372 68Q372 75 367 75Q365 75 358 74Q351 72 349 72Q334 72 334 91L334 455Q334 466 344 484Q348 492 348 494Q348 496 333.50 508Q319 520 299.50 533.50Q280 547 263.50 557Q247 567 241 567Q237 567 228 561.50Q219 556 197 542Q176 528 162.50 520Q149 512 143 512Q141 512 141 515L141 732Q141 740 136 740Q132 740 117 719Q108 704 100 695Q92 686 84 686Q81 686 71 696Q62 705 60 705Q53 705 53 695L53 527Q53 525 45 512Q38 502 38 500Q38 496 44 490Q53 481 53 472L53-1Z"  horiz-adv-x="375" vert-adv-y="1000"  />

      
      <glyph glyph-name="uni69" unicode="&#x69;" d="M56 92Q56 77 55 70.50Q54 64 49 57Q48 56 48 56Q46 53 46 51Q46 48 54 38Q62 28 73.50 16Q85 4 95.50-4Q106-12 112-12Q114-12 125.50-4.50Q137 3 148.50 12.50Q160 22 169 31Q178 40 178 44Q178 48 170 52Q144 69 144 103L144 439Q144 457 146 467Q148 477 152 485Q154 488 154 491Q154 499 127 520Q116 529 110 534Q86 554 78 560.50Q70 567 66 567Q61 567 54 558.50Q47 550 39 536.50Q31 523 25.50 512.50Q20 502 20 500Q20 495 33 480Q56 454 56 437L56 92M127 703Q99 703 78.50 682.50Q58 662 58 634Q58 621 66 621Q68 621 70 623L71 624Q81 643 88.50 651Q96 659 111 659Q113 659 127 658Q137 657 140 657Q158 657 158 676Q158 703 127 703Z"  horiz-adv-x="188" vert-adv-y="1000"  />

      
      <glyph glyph-name="uni6a" unicode="&#x6a;" d="M32 510Q28 506 28 502Q28 497 41 484Q58 468 64 455Q70 442 70 424L70-2Q70-59 62-89.50Q54-120 31-151L27-156Q21-163 19-166Q17-169 17-170Q17-177 24-177Q29-177 35.50-170Q42-163 76-123L117-76L137-51Q150-35 154-25.50Q158-16 158-2L158 469Q158 471 163 483Q167 492 167 493Q167 496 159 504Q151 512 134 528L132 530Q128 534 118 543Q102 560 97.50 563.50Q93 567 89 567Q83 567 63 546L32 510M150 709Q130 709 114 698.50Q98 688 88 674Q78 660 72.50 646.50Q67 633 67 628Q67 619 72 619Q78 619 94 640Q104 654 112.50 659Q121 664 134 664Q138 664 154 661Q169 658 171 658Q181 658 181 672Q181 688 172 698.50Q163 709 150 709Z"  horiz-adv-x="201" vert-adv-y="1000"  />

      
      <glyph glyph-name="uni6b" unicode="&#x6b;" d="M58 497Q57 488 47 478Q42 473 42 470Q42 468 50 459Q58 450 58 448L58-1L146 7L146 261Q146 270 157 270Q171 270 184.50 244Q198 218 208 175Q216 145 226 113.50Q236 82 246.50 55Q257 28 265.50 12Q274-4 279-4Q285-4 330 37Q332 39 342 47Q359 61 359 69Q359 75 352 75Q349 75 343 73Q338 71 336 71Q327 71 318 89Q309 107 291 162L282 189Q263 246 251.50 283.50Q240 321 240 322Q240 327 251.50 336.50Q263 346 278 354Q305 368 310.50 376Q316 384 317 404L317 404Q318 420 320 450Q323 489 323 498Q323 503 317 507Q307 514 284 531Q262 548 246 559Q237 566 232 566Q228 566 217.50 559.50Q207 553 196 544Q169 522 154 522Q146 522 146 534L146 731Q146 740 141 740Q137 740 134.50 737Q132 734 125 721L121 714Q103 681 91 681Q84 681 77 692Q69 702 63 702Q58 702 58 695L58 497M146 483Q146 489 152 493.50Q158 498 166 498Q200 498 219.50 473Q239 448 239 406Q239 357 214 326Q189 295 150 295Q146 295 146 299L146 483Z"  horiz-adv-x="357" vert-adv-y="1000"  />

      
      <glyph glyph-name="uni6c" unicode="&#x6c;" d="M173 33Q192 50 192 56Q192 61 182 65Q155 77 155 103L155 723Q155 734 147 734Q143 734 137.50 727.50Q132 721 122 708Q112 695 106 688.50Q100 682 96 682Q94 682 86 692Q78 702 75 702Q67 702 67 691L67 497Q66 488 56 478Q51 473 51 470Q51 468 59 459Q67 450 67 448L67 93Q67 83 57 71Q49 62 49 56Q49 54 55.50 46Q62 38 78 20Q99-3 105-9Q111-15 114-15Q117-15 124-10L173 33Z"  horiz-adv-x="208" vert-adv-y="1000"  />

      
      <glyph glyph-name="uni6d" unicode="&#x6d;" d="M144 0L144 459Q144 487 169 487Q244 487 244 401L244 0L332 0L332 454Q332 492 350 492Q359 492 373 486Q387 480 400.50 471.50Q414 463 423 454.50Q432 446 432 443L432 2Q432-4 438-4Q439-4 449.50 0Q460 4 470 8Q497 18 504.50 21Q512 24 516 25Q537 31 544 35.50Q551 40 551 46Q551 52 546 52Q543 52 539 51Q535 50 532 50Q525 50 522.50 56.50Q520 63 520 83L520 449Q520 459 527 477Q531 486 531 488Q531 495 515.50 507.50Q500 520 478.50 533.50Q457 547 438 557Q419 567 417 567Q413 567 400 558Q387 549 376 539Q358 522 351.50 517.50Q345 513 335 511Q330 512 319 519Q308 526 291 538Q272 551 259.50 559Q247 567 241 567Q238 567 230 560.50Q222 554 208 543Q189 527 176.50 517.50Q164 508 158 508Q154 508 146.50 514Q139 520 125 533Q107 550 96 558.50Q85 567 78 567Q75 567 66 558Q57 549 45.50 536Q34 523 26.50 512Q19 501 19 496Q19 493 24.50 486Q30 479 40 468Q55 452 56 448Q66 347 66 242Q66 162 59 51Q56 11 56 0L144 0Z"  horiz-adv-x="563" vert-adv-y="1000"  />

      
      <glyph glyph-name="uni6e" unicode="&#x6e;" d="M142 0L142 442Q142 477 147 486.50Q152 496 171 496Q203 496 225 470.50Q247 445 247 408L247 23Q247 5 248.50 0Q250-5 254-5Q258-5 281.50 7.50Q305 20 369 56Q369 57 370 58Q370 60 370 60Q370 69 365 69Q364 69 355 65Q345 59 343 59Q335 59 335 83L335 457Q335 474 348 484Q354 489 354 493Q354 496 339 507.50Q324 519 302.50 533.50Q281 548 263.50 558Q246 568 242 568L158 517Q150 512 144 512Q139 512 131 519Q123 526 110 538Q97 550 89.50 556Q82 562 78 562Q76 562 65.50 554Q55 546 44 535.50Q33 525 25 514.50Q17 504 17 498Q17 496 26 489Q41 477 46 466Q53 451 55.50 403Q58 355 58 242Q58 107 54 0L142 0Z"  horiz-adv-x="375" vert-adv-y="1000"  />

      
      <glyph glyph-name="uni6f" unicode="&#x6f;" d="M54 101Q54 93 51 89Q48 85 43 81Q36 77 36 72Q36 68 48.50 60.50Q61 53 105 30Q151 6 171-3.50Q191-13 195-13Q200-13 214-5.50Q228 2 253 17Q277 31 289 38Q301 45 312 50Q326 56 330.50 60Q335 64 335 70L335 460Q335 470 342 474Q347 478 347 484Q347 489 326.50 502Q306 515 275.50 530.50Q245 546 220.50 556.50Q196 567 192 567Q189 567 179 562Q169 557 156 549Q140 539 118.50 527.50Q97 516 78 508Q60 500 57 496.50Q54 493 54 481L54 101M142 469Q142 489 155 489Q160 489 174.50 481.50Q189 474 206.50 463Q224 452 235.50 442Q247 432 247 427L247 98Q247 74 236 74Q228 74 178 97Q176 98 173 99Q155 107 148.50 117Q142 127 142 145L142 469Z"  horiz-adv-x="375" vert-adv-y="1000"  />

      
      <glyph glyph-name="uni70" unicode="&#x70;" d="M60-180Q68-180 75-175Q77-172 79-168Q86-155 90-148Q94-141 96-141Q99-141 108-148Q128-163 150-171.50Q172-180 191-180Q215-180 215-170Q215-165 198-159Q148-139 148-99L148-13L152-13Q208-19 233-24Q236-24 247.50-16Q259-8 281 8Q312 30 326 40Q338 49 340 57Q342 65 342 98L342 462Q342 469 343.50 472Q345 475 350 477Q357 480 357 487Q357 491 341.50 503.50Q326 516 304.50 530Q283 544 264 554.50Q245 565 239 565Q233 565 221.50 557Q210 549 188 533Q171 520 162.50 514Q154 508 151 508Q146 508 139 515Q132 522 122 534Q109 549 102 555.50Q95 562 90 562Q85 562 75 554Q65 546 53 534Q41 522 33 512Q25 502 25 500Q25 499 35 487Q47 473 53.50 464Q60 455 60 451L60 89Q60 82 44 56Q21 18 21 2Q21-8 27-10Q33-12 60-12L60-180M148 466Q148 496 169 496Q203 496 228.50 473.50Q254 451 254 422L254 87Q254 52 238 52Q235 52 220 55Q205 58 188.50 62Q172 66 160 71.50Q148 77 148 82L148 466Z"  horiz-adv-x="385" vert-adv-y="1000"  />

      
      <glyph glyph-name="uni71" unicode="&#x71;" d="M55 106Q55 88 45 77Q41 73 41 71Q41 66 54 54.50Q67 43 83 32L88 29Q121 6 131.50 0Q142-6 147-6Q158-6 190 18Q224 45 240 45Q244 45 245 39.50Q246 34 246 15L246-8Q246-16 245-44.50Q244-73 244-75Q242-102 241.50-117Q241-132 241-139Q241-152 250-152Q254-152 256.50-150.50Q259-149 265-141Q278-124 293.50-109.50Q309-95 312-95Q322-95 325-153Q326-168 328.50-173Q331-178 338-178Q343-178 343-166Q343-156 339-125Q335-93 335-83L335 456Q335 473 345 487Q348 492 348 494Q348 497 325 508Q302 519 268 533Q260 536 230 549Q205 560 194.50 563.50Q184 567 176 567Q175 567 163.50 560.50Q152 554 140 548Q127 541 113 533.50Q99 526 95 524Q70 511 62.50 504.50Q55 498 55 488L55 106M247 75Q247 68 234 68Q205 68 174 85.50Q143 103 143 129L143 467Q143 478 154 478Q161 478 176.50 472.50Q192 467 208 457.50Q224 448 235.50 434.50Q247 421 247 406L247 75Z"  horiz-adv-x="375" vert-adv-y="1000"  />

      
      <glyph glyph-name="uni72" unicode="&#x72;" d="M156 463Q156 488 173 488Q182 488 193 479.50Q204 471 215.50 457.50Q227 444 237 427.50Q247 411 252 395Q258 376 268 376Q275 376 275 390Q276 405 278.50 418.50Q281 432 288 457Q295 488 295 498Q295 506 286 516.50Q277 527 263.50 538Q250 549 238 555.50Q226 562 221 562Q217 562 199 543Q185 527 174.50 518.50Q164 510 155 510Q152 510 144 515.50Q136 521 121 532Q105 545 94.50 552Q84 559 79 559Q76 559 67 549L31 506Q23 496 23 489Q23 482 36 474Q59 461 63.50 448.50Q68 436 68 388L68 106Q68 89 66 82Q64 75 57 68Q52 63 52 58Q52 54 64 43Q76 32 92.50 19.50Q109 7 124-3Q139-13 142-13Q144-13 158-6Q172 1 185 8Q210 22 217 28Q224 34 224 37Q224 39 213 46L206 51Q177 70 166.50 85.50Q156 101 156 126L156 463Z"  horiz-adv-x="292" vert-adv-y="1000"  />

      
      <glyph glyph-name="uni73" unicode="&#x73;" d="M348 217Q348 231 350 239Q352 247 358 255Q362 260 362 263Q362 269 349.50 277.50Q337 286 312 301Q287 315 274.50 323.50Q262 332 262 338Q262 341 275 361Q276 363 280 369Q296 392 310 416.50Q324 441 334.50 463Q345 485 352 501.50Q359 518 359 522Q359 526 355 529.50Q351 533 348 533Q346 533 334 510Q325 492 319 482.50Q313 473 309 473Q305 473 295.50 482.50Q286 492 269 511Q245 537 231 550.50Q217 564 210 564Q207 564 195 558Q183 552 156 538Q155 537 147 533L95 506Q76 496 71.50 489.50Q67 483 67 466L67 315Q67 308 62 293Q57 281 57 277Q57 271 64.50 263.50Q72 256 88 245Q105 233 113 225.50Q121 218 121 210Q121 203 105 183Q70 135 47.50 85Q25 35 25 3Q25-11 28-21Q31-31 36-31Q45-31 45-22Q45 8 48.50 24.50Q52 41 60 41Q62 41 90 28Q117 17 130 11Q143 5 155 1Q194-15 205-15Q208-15 222-7.50Q236 0 270 19Q306 39 310 41Q336 53 342 64Q348 75 348 112L348 217M229 418Q256 381 256 374Q256 366 247 352Q238 338 225.50 324Q213 310 201.50 300.50Q190 291 186 291Q178 291 166.50 307Q155 323 155 335L155 466Q155 490 167 490Q173 490 181 481Q189 472 213 439L229 418M260 115Q260 62 246 62Q229 62 176 93L158 103Q126 122 118 128.50Q110 135 110 144Q110 151 121.50 168Q133 185 150 205.50Q167 226 182 240.50Q197 255 200 255Q224 255 242 228.50Q260 202 260 165L260 115Z"  horiz-adv-x="375" vert-adv-y="1000"  />

      
      <glyph glyph-name="uni74" unicode="&#x74;" d="M174 449Q174 465 178 471Q182 477 193 477L268 477Q312 477 312 532Q312 541 301 541L189 541Q174 541 174 555L174 620Q174 630 169 630Q165 630 154 620Q143 610 132 600L115 585Q66 541 53.50 528.50Q41 516 41 511Q41 504 62 488Q73 479 79.50 472.50Q86 466 86 460L86 139Q86 114 83 100Q80 86 73 75Q70 72 70 69Q70 67 86 55Q102 43 126.50 26Q151 9 169.50-3Q188-15 189-15Q194-15 201-11L297 40Q313 47 313 56Q313 66 292 66Q268 66 250 68Q232 70 214.50 78Q197 86 185.50 104Q174 122 174 153L174 449Z"  horiz-adv-x="313" vert-adv-y="1000"  />

      
      <glyph glyph-name="uni75" unicode="&#x75;" d="M247 79Q247 67 217 67Q177 67 160 96.50Q143 126 143 194L143 467Q143 477 150 488Q153 493 153 495Q153 497 141.50 508.50Q130 520 114 534Q98 548 85.50 557.50Q73 567 70 567Q66 567 63.50 564.50Q61 562 55 551Q45 536 42 531L40 527Q33 517 27.50 508Q22 499 22 497Q22 493 31 485Q55 463 55 433L55 102Q55 92 51.50 86Q48 80 43 74Q37 69 37 66Q37 62 41 58.50Q45 55 58 47Q68 41 86 28.50Q104 16 113 9Q129-3 137-7.50Q145-12 150-12Q163-12 191 12Q209 27 221 33.50Q233 40 247 44Q247 35 247 22Q246 14 246 7Q246-21 252-21Q254-21 267-11Q278-3 284 2Q298 13 312.50 23.50Q327 34 343 45Q358 55 363.50 60Q369 65 369 69Q369 76 363 76Q362 76 358 75Q354 74 352 74Q342 74 338.50 78Q335 82 335 96L335 433Q335 457 337 467.50Q339 478 345 485Q348 489 348 493Q348 498 334.50 510Q321 522 302 534.50Q283 547 266.50 557Q250 567 247 567Q244 567 234.50 559Q225 551 213 538Q201 525 193 515.50Q185 506 185 502Q185 500 195 497Q220 490 233.50 474Q247 458 247 440L247 79Z"  horiz-adv-x="375" vert-adv-y="1000"  />

      
      <glyph glyph-name="uni76" unicode="&#x76;" d="M335 433Q335 473 353 488Q358 492 358 494Q358 497 342 508.50Q326 520 303.50 534.50Q281 549 264.50 558.50Q248 568 245 568Q239 568 226.50 560.50Q214 553 191 538Q171 525 161.50 519Q152 513 147 513Q139 513 129 521.50Q119 530 104 545Q85 564 81 564Q79 564 69.50 556.50Q60 549 47.50 537.50Q35 526 27 516Q19 506 19 501Q19 497 29 488Q43 477 49 464.50Q55 452 55 433L55 132Q55 107 52.50 96.50Q50 86 43 80Q39 76 39 74Q39 67 49.50 60Q60 53 103 29L103 29Q107 27 127 16Q148 5 162-2.50Q176-10 177-10Q180-10 188.50-6Q197-2 224 11L245 22L263 31Q295 47 307 53.50Q319 60 325.50 64Q332 68 333.50 70.50Q335 73 335 76L335 433M143 438Q143 476 148 487Q153 498 171 498Q205 498 226 473.50Q247 449 247 409L247 114Q247 72 229 72Q191 72 167 106Q143 140 143 192L143 438Z"  horiz-adv-x="375" vert-adv-y="1000"  />

      
      <glyph glyph-name="uni77" unicode="&#x77;" d="M312 19Q341 2 353.50-4Q366-10 371-10Q375-10 395 0Q415 10 451 28Q477 42 480 43Q514 59 520 64.50Q526 70 526 87L526 445Q526 464 529 472.50Q532 481 540 485Q545 488 545 493Q545 498 540 502Q535 506 507 524L496 531Q462 553 450 560Q438 567 434 567Q429 567 411.50 558.50Q394 550 378 536Q360 521 354 517.50Q348 514 339 512Q333 513 321 520.50Q309 528 290 540Q270 554 259.50 560.50Q249 567 244 567Q228 567 187 537Q155 513 144 513Q139 513 127.50 522Q116 531 99 547Q81 564 79 564Q76 564 66.50 556Q57 548 45.50 535.50Q34 523 26 512.50Q18 502 18 498Q18 494 27 488Q52 471 52 437L52 106Q52 94 40 80Q36 76 36 74Q36 69 55 56Q74 43 102.50 27Q131 11 152.50 0.50Q174-10 177-10Q179-10 196.50-1.50Q214 7 236 19Q274 38 277 39L312 19M140 473Q140 498 167 498Q198 498 221.50 473.50Q245 449 245 417L245 107Q245 73 223 73Q186 73 163 109.50Q140 146 140 202L140 473M333 463Q333 499 358 499Q390 499 414 473.50Q438 448 438 414L438 105Q438 73 419 73Q382 73 357.50 111.50Q333 150 333 209L333 463Z"  horiz-adv-x="563" vert-adv-y="1000"  />

      
      <glyph glyph-name="uni78" unicode="&#x78;" d="M168 244Q168 231 151 195Q134 159 100 110L87 92Q50 41 32.50-4.50Q15-50 15-64Q15-74 21-74Q23-74 27.50-65Q32-56 39-40Q52-12 60.50 4Q69 20 76 20Q81 20 91 15Q101 10 118 0Q134-9 142-13Q150-17 154-17Q162-17 172-9Q182-1 198 14Q212 28 219.50 34Q227 40 232 40Q240 40 267 20Q283 7 293.50 0.50Q304-6 312-6Q318-6 328.50 2.50Q339 11 350.50 23.50Q362 36 370 46.50Q378 57 378 60Q378 65 363 69Q347 73 337 78.50Q327 84 319 94.50Q311 105 303 123.50Q295 142 284 175L280 187Q262 236 250 271Q238 306 238 316Q238 328 254 352Q270 376 299 415Q325 450 337 468.50Q349 487 349 495Q349 505 307 532Q297 538 295 539Q288 543 274 553Q254 567 251 567Q250 567 238 555Q218 535 203.50 522.50Q189 510 182 510Q178 510 169.50 516Q161 522 146 534Q126 550 113 558.50Q100 567 93 567Q90 567 82.50 560Q75 553 62 537Q52 525 41 513Q30 502 30 499Q30 492 50 481Q76 468 87.50 454.50Q99 441 108 414L168 244M121 108Q121 110 128.50 125Q136 140 146 157.50Q156 175 165 188.50Q174 202 176 202Q179 202 186.50 183Q194 164 203 137Q212 110 219 87.50Q226 65 226 60Q226 54 220 54Q218 54 201.50 60.50Q185 67 164 78Q134 93 127.50 97.50Q121 102 121 108M251 369Q244 358 238 349.50Q232 341 230 341Q226 341 218.50 359Q211 377 203.50 401.50Q196 426 190.50 448.50Q185 471 185 476Q185 489 200 489Q205 489 219.50 482Q234 475 250 464.50Q266 454 277 444.50Q288 435 288 429Q288 429 287 428Q287 427 287 427L251 369Z"  horiz-adv-x="385" vert-adv-y="1000"  />

      
      <glyph glyph-name="uni79" unicode="&#x79;" d="M71 92Q71 83 68.50 79Q66 75 59 71Q52 67 52 63Q52 57 61 56Q69 55 73.50 53Q78 51 87 44L139 3Q83-22 60.50-46Q38-70 38-103Q38-138 61.50-158Q85-178 126-178Q160-178 191-167Q222-156 262-136Q318-108 341-108Q378-108 378-137Q378-145 371-156Q367-164 367-167Q367-173 375-173Q385-173 392.50-157Q400-141 400-121Q400-92 382-73Q364-54 335-54Q315-54 293.50-66Q272-78 240-102Q200-131 171.50-146Q143-161 112-161Q87-161 69-145Q51-129 51-107Q51-77 81-52Q111-27 157-8.50Q203 10 250.50 21.50Q298 33 335 37Q346 39 349.50 42.50Q353 46 353 59L353 451Q353 467 355 474.50Q357 482 363 489Q367 493 367 497Q367 500 355 508Q343 516 321 530Q312 535 311 536Q304 541 300 544Q281 558 274.50 562.50Q268 567 265 567Q260 567 255 563Q250 559 235 539Q232 536 224 527Q217 519 209 510Q201 501 201 500Q201 496 208 495Q234 490 249.50 463.50Q265 437 265 398L265 90Q265 64 263 58.50Q261 53 251 53Q212 53 185.50 87.50Q159 122 159 172L159 473Q159 480 167 484Q173 487 173 491Q173 492 159.50 505.50Q146 519 133 531Q120 543 106.50 555Q93 567 92 567Q88 567 73 550.50Q58 534 41 514Q32 504 32 502Q32 497 43 489Q58 479 64.50 466.50Q71 454 71 436L71 92Z"  horiz-adv-x="396" vert-adv-y="1000"  />

      
      <glyph glyph-name="uni7a" unicode="&#x7a;" d="M290 314Q267 315 258 317Q249 319 249 324Q249 331 270.50 370Q292 409 324 447Q343 470 359 496Q375 522 375 530Q375 535 371 535Q367 535 357 528Q338 516 327 516Q312 516 270 528.50Q228 541 170 559Q133 571 118.50 575.50Q104 580 100 580Q96 580 84.50 569.50Q73 559 60.50 544.50Q48 530 39.50 517.50Q31 505 31 501Q31 490 50 490Q74 490 117 478L218 450Q249 442 270 439Q283 437 286.50 435Q290 433 290 428Q290 425 282 411Q274 397 256 369Q239 344 236 338Q231 327 222 327Q217 327 195 335Q174 342 170 342Q159 342 151.50 333Q144 324 134 306Q122 283 118 274.50Q114 266 114 264Q114 262 121.50 260.50Q129 259 144 257Q161 255 170 253.50Q179 252 179 248Q179 238 161 209Q143 180 106 125Q84 92 69 69.50Q54 47 42 27.50Q30 8 22.50-8Q15-24 15-32Q15-35 18.50-37.50Q22-40 25-40Q31-40 39-23L39-22Q46-7 50.50-1Q55 5 63.50 8Q72 11 85.50 11.50Q99 12 132 12Q180 12 220.50 7.50Q261 3 306-7Q331-12 342-12Q350-12 354.50-8Q359-4 366 8Q370 14 377 24Q381 30 384 34Q398 53 403 62.50Q408 72 408 79Q408 86 401 88.50Q394 91 372 91Q367 91 337 91Q317 90 301 90Q291 90 265.50 91.50Q240 93 218 95Q184 97 165 98Q146 99 140 99Q127 99 124 99.50Q121 100 121 102Q121 106 133 128Q145 150 160 175.50Q175 201 188 221.50Q201 242 203 242Q203 242 211 239Q230 233 244.50 228.50Q259 224 264 224Q270 224 273 228Q276 232 284 244Q292 256 300.50 269Q309 282 314.50 291.50Q320 301 320 305Q320 310 314 311.50Q308 313 294 314Q292 314 290 314Z"  horiz-adv-x="417" vert-adv-y="1000"  />

      
      <glyph glyph-name="uni7b" unicode="&#x7b;" d="M227 434Q227 445 223.50 463Q220 481 212 515Q205 548 201.50 572Q198 596 197 617Q197 653 201.50 670Q206 687 223 687Q233 687 249.50 679.50Q266 672 287 661Q306 651 308 651Q310 651 319.50 658.50Q329 666 342 677Q355 688 363.50 696.50Q372 705 372 707Q372 709 362 714.50Q352 720 337.50 726Q323 732 310.50 736.50Q298 741 295 741Q291 741 274.50 734Q258 727 234.50 715.50Q211 704 187 690.50Q163 677 142 663Q130 655 125 626Q120 597 120 567Q120 536 132 488L133 483Q144 440 144 416Q144 398 135 379.50Q126 361 112.50 345.50Q99 330 85 318.50Q71 307 59 299Q53 295 53 280Q53 265 59 261Q70 254 84.50 242Q99 230 112.50 214.50Q126 199 135 180.50Q144 162 144 144Q144 120 133 77L132 72Q120 24 120-7Q120-37 125-66Q130-95 142-103Q162-116 186.50-130Q211-144 234.50-155.50Q258-167 274.50-174Q291-181 295-181Q298-181 310.50-176.50Q323-172 337.50-166Q352-160 362-154.50Q372-149 372-147Q372-145 363.50-136.50Q355-128 342-117Q329-106 319.50-98.50Q310-91 308-91Q306-91 287-101Q264-113 248.50-120Q233-127 223-127Q206-127 201.50-110Q197-93 197-57Q198-36 201.50-12Q205 12 212 45Q220 79 223.50 97Q227 115 227 126Q227 147 215.50 169Q204 191 185.50 211.50Q167 232 146.50 246.50Q126 261 107 268Q92 274 92 280Q92 286 107 292Q125 298 146.50 313.50Q168 329 186 348.50Q204 368 215.50 390.50Q227 413 227 434Z"  horiz-adv-x="340" vert-adv-y="1000"  />

      
      <glyph glyph-name="uni7c" unicode="&#x7c;" d="M231-250L295-250L295 750L231 750L231-250Z"  horiz-adv-x="527" vert-adv-y="1000"  />

      
      <glyph glyph-name="uni7d" unicode="&#x7d;" d="M216 416Q216 440 227 483L228 488Q240 536 240 567Q240 597 235 626Q230 655 218 663Q198 676 173.50 690Q149 704 125.50 715.50Q102 727 85.50 734Q69 741 65 741Q62 741 49.50 736.50Q37 732 22.50 726Q8 720-2 714.50Q-12 709-12 707Q-12 705-3.50 696.50Q5 688 18 677Q31 666 40.50 658.50Q50 651 52 651Q54 651 73 661Q96 673 112 680Q128 687 137 687Q154 687 158.50 670Q163 653 163 617Q162 596 158.50 572Q155 548 148 515Q140 481 136.50 463Q133 445 133 434Q133 413 144.50 391Q156 369 174.50 348.50Q193 328 214 313.50Q235 299 253 292Q268 286 268 280Q268 274 253 268Q235 262 214 247Q193 232 174.50 212Q156 192 144.50 169.50Q133 147 133 126Q133 115 136.50 97Q140 79 148 45Q155 12 158.50-12Q162-36 163-57Q163-93 158.50-110Q154-127 137-127Q128-127 111.50-119.50Q95-112 73-101Q54-91 52-91Q50-91 40.50-98.50Q31-106 18-117Q5-128-3.50-136.50Q-12-145-12-147Q-12-149-2-154.50Q8-160 22.50-166Q37-172 49.50-176.50Q62-181 65-181Q69-181 85.50-174Q102-167 125.50-155.50Q149-144 173-130.50Q197-117 218-103Q230-95 235-66Q240-37 240-7Q240 24 228 72L227 77Q216 120 216 144Q216 162 225 180.50Q234 199 247.50 214.50Q261 230 275 241.50Q289 253 301 261Q307 265 307 280Q307 295 301 299Q290 306 275.50 318Q261 330 247.50 345.50Q234 361 225 379.50Q216 398 216 416Z"  horiz-adv-x="340" vert-adv-y="1000"  />

      
      <glyph glyph-name="uni7e" unicode="&#x7e;" d="M138 199Q156 229 177 247Q198 265 224 265Q273 265 330 233Q360 216 386 206.50Q412 197 442 197Q484 197 514.50 220.50Q545 244 572 287L528 333Q510 304 489 285.50Q468 267 442 267Q419 267 396 275.50Q373 284 342 301Q311 318 284 326.50Q257 335 224 335Q182 335 151.50 312Q121 289 94 247L138 199Z"  horiz-adv-x="667" vert-adv-y="1000"  />

      
      <glyph glyph-name="uni201A" unicode="&#x201A;" d="M121 114Q118 114 110.50 107Q103 100 93.50 90Q84 80 77 71Q70 62 70 59Q70 53 87 39Q123 8 123-22Q123-35 115.50-50.50Q108-66 95-80Q84-91 84-96Q84-99 89-99Q92-99 108-90Q124-81 141.50-65.50Q159-50 171.50-27.50Q184-5 184 22Q184 40 176 56.50Q168 73 156.50 86Q145 99 134.50 106.50Q124 114 121 114Z"  horiz-adv-x="250" vert-adv-y="1000"  />

      
      </font>
</defs>
</svg>
